G04 #@! TF.GenerationSoftware,KiCad,Pcbnew,7.0.10*
G04 #@! TF.CreationDate,2024-12-17T12:16:58-06:00*
G04 #@! TF.ProjectId,karca_v2,6b617263-615f-4763-922e-6b696361645f,rev?*
G04 #@! TF.SameCoordinates,Original*
G04 #@! TF.FileFunction,Soldermask,Top*
G04 #@! TF.FilePolarity,Negative*
%FSLAX46Y46*%
G04 Gerber Fmt 4.6, Leading zero omitted, Abs format (unit mm)*
G04 Created by KiCad (PCBNEW 7.0.10) date 2024-12-17 12:16:58*
%MOMM*%
%LPD*%
G01*
G04 APERTURE LIST*
G04 Aperture macros list*
%AMRoundRect*
0 Rectangle with rounded corners*
0 $1 Rounding radius*
0 $2 $3 $4 $5 $6 $7 $8 $9 X,Y pos of 4 corners*
0 Add a 4 corners polygon primitive as box body*
4,1,4,$2,$3,$4,$5,$6,$7,$8,$9,$2,$3,0*
0 Add four circle primitives for the rounded corners*
1,1,$1+$1,$2,$3*
1,1,$1+$1,$4,$5*
1,1,$1+$1,$6,$7*
1,1,$1+$1,$8,$9*
0 Add four rect primitives between the rounded corners*
20,1,$1+$1,$2,$3,$4,$5,0*
20,1,$1+$1,$4,$5,$6,$7,0*
20,1,$1+$1,$6,$7,$8,$9,0*
20,1,$1+$1,$8,$9,$2,$3,0*%
G04 Aperture macros list end*
%ADD10C,3.200000*%
%ADD11RoundRect,0.250000X0.312500X0.625000X-0.312500X0.625000X-0.312500X-0.625000X0.312500X-0.625000X0*%
%ADD12RoundRect,0.250000X0.625000X-0.312500X0.625000X0.312500X-0.625000X0.312500X-0.625000X-0.312500X0*%
%ADD13RoundRect,0.250000X0.325000X0.650000X-0.325000X0.650000X-0.325000X-0.650000X0.325000X-0.650000X0*%
%ADD14C,2.000000*%
%ADD15RoundRect,0.250000X-0.312500X-0.625000X0.312500X-0.625000X0.312500X0.625000X-0.312500X0.625000X0*%
%ADD16RoundRect,0.150000X0.587500X0.150000X-0.587500X0.150000X-0.587500X-0.150000X0.587500X-0.150000X0*%
%ADD17R,1.350000X1.350000*%
%ADD18O,1.350000X1.350000*%
%ADD19RoundRect,0.250000X-0.325000X-0.650000X0.325000X-0.650000X0.325000X0.650000X-0.325000X0.650000X0*%
%ADD20RoundRect,0.135000X-0.185000X0.135000X-0.185000X-0.135000X0.185000X-0.135000X0.185000X0.135000X0*%
%ADD21RoundRect,0.250000X0.375000X0.625000X-0.375000X0.625000X-0.375000X-0.625000X0.375000X-0.625000X0*%
%ADD22RoundRect,0.150000X-0.825000X-0.150000X0.825000X-0.150000X0.825000X0.150000X-0.825000X0.150000X0*%
%ADD23RoundRect,0.100000X-0.712500X-0.100000X0.712500X-0.100000X0.712500X0.100000X-0.712500X0.100000X0*%
%ADD24RoundRect,0.150000X0.825000X0.150000X-0.825000X0.150000X-0.825000X-0.150000X0.825000X-0.150000X0*%
%ADD25R,0.650000X0.400000*%
%ADD26RoundRect,0.250000X-0.650000X0.325000X-0.650000X-0.325000X0.650000X-0.325000X0.650000X0.325000X0*%
%ADD27RoundRect,0.150000X-0.150000X0.825000X-0.150000X-0.825000X0.150000X-0.825000X0.150000X0.825000X0*%
%ADD28RoundRect,0.102000X1.387500X1.387500X-1.387500X1.387500X-1.387500X-1.387500X1.387500X-1.387500X0*%
%ADD29C,2.979000*%
%ADD30RoundRect,0.250000X-0.650000X1.000000X-0.650000X-1.000000X0.650000X-1.000000X0.650000X1.000000X0*%
%ADD31RoundRect,0.250000X-0.625000X0.312500X-0.625000X-0.312500X0.625000X-0.312500X0.625000X0.312500X0*%
%ADD32RoundRect,0.250000X0.650000X-0.325000X0.650000X0.325000X-0.650000X0.325000X-0.650000X-0.325000X0*%
%ADD33RoundRect,0.250000X-0.312500X-1.450000X0.312500X-1.450000X0.312500X1.450000X-0.312500X1.450000X0*%
%ADD34RoundRect,0.135000X0.185000X-0.135000X0.185000X0.135000X-0.185000X0.135000X-0.185000X-0.135000X0*%
%ADD35RoundRect,0.250000X0.362500X1.425000X-0.362500X1.425000X-0.362500X-1.425000X0.362500X-1.425000X0*%
%ADD36R,3.200000X3.200000*%
%ADD37O,3.200000X3.200000*%
%ADD38RoundRect,0.250000X0.450000X0.425000X-0.450000X0.425000X-0.450000X-0.425000X0.450000X-0.425000X0*%
%ADD39RoundRect,0.250000X0.625000X-0.375000X0.625000X0.375000X-0.625000X0.375000X-0.625000X-0.375000X0*%
%ADD40RoundRect,0.150000X0.512500X0.150000X-0.512500X0.150000X-0.512500X-0.150000X0.512500X-0.150000X0*%
%ADD41RoundRect,0.102000X1.387500X-1.387500X1.387500X1.387500X-1.387500X1.387500X-1.387500X-1.387500X0*%
%ADD42RoundRect,0.102000X0.571500X0.571500X-0.571500X0.571500X-0.571500X-0.571500X0.571500X-0.571500X0*%
%ADD43RoundRect,0.102000X2.095500X0.952500X-2.095500X0.952500X-2.095500X-0.952500X2.095500X-0.952500X0*%
%ADD44RoundRect,0.102000X0.952500X2.095500X-0.952500X2.095500X-0.952500X-2.095500X0.952500X-2.095500X0*%
%ADD45RoundRect,0.250000X0.650000X-1.000000X0.650000X1.000000X-0.650000X1.000000X-0.650000X-1.000000X0*%
%ADD46R,0.400000X0.650000*%
%ADD47O,2.134400X4.064800*%
%ADD48RoundRect,0.140000X0.140000X0.170000X-0.140000X0.170000X-0.140000X-0.170000X0.140000X-0.170000X0*%
%ADD49O,2.154000X4.104000*%
%ADD50C,1.440000*%
%ADD51O,4.064800X2.134400*%
%ADD52RoundRect,0.102000X0.450000X0.400000X-0.450000X0.400000X-0.450000X-0.400000X0.450000X-0.400000X0*%
%ADD53R,1.905000X2.000000*%
%ADD54O,1.905000X2.000000*%
%ADD55RoundRect,0.100000X-0.100000X0.637500X-0.100000X-0.637500X0.100000X-0.637500X0.100000X0.637500X0*%
%ADD56RoundRect,0.093750X-0.106250X0.093750X-0.106250X-0.093750X0.106250X-0.093750X0.106250X0.093750X0*%
%ADD57R,1.600000X1.000000*%
%ADD58R,1.800000X1.150000*%
%ADD59RoundRect,0.150000X-0.512500X-0.150000X0.512500X-0.150000X0.512500X0.150000X-0.512500X0.150000X0*%
%ADD60RoundRect,0.140000X-0.140000X-0.170000X0.140000X-0.170000X0.140000X0.170000X-0.140000X0.170000X0*%
%ADD61RoundRect,0.150000X0.150000X-0.512500X0.150000X0.512500X-0.150000X0.512500X-0.150000X-0.512500X0*%
%ADD62RoundRect,0.150000X-0.875000X-0.150000X0.875000X-0.150000X0.875000X0.150000X-0.875000X0.150000X0*%
%ADD63RoundRect,0.102000X-1.387500X1.387500X-1.387500X-1.387500X1.387500X-1.387500X1.387500X1.387500X0*%
%ADD64RoundRect,0.250000X1.425000X-0.362500X1.425000X0.362500X-1.425000X0.362500X-1.425000X-0.362500X0*%
%ADD65RoundRect,0.250000X-0.425000X0.450000X-0.425000X-0.450000X0.425000X-0.450000X0.425000X0.450000X0*%
%ADD66RoundRect,0.140000X-0.170000X0.140000X-0.170000X-0.140000X0.170000X-0.140000X0.170000X0.140000X0*%
%ADD67C,2.184000*%
%ADD68R,1.050000X1.500000*%
%ADD69O,1.050000X1.500000*%
%ADD70O,4.104000X2.154000*%
%ADD71RoundRect,0.250000X-0.362500X-1.425000X0.362500X-1.425000X0.362500X1.425000X-0.362500X1.425000X0*%
%ADD72RoundRect,0.140000X0.170000X-0.140000X0.170000X0.140000X-0.170000X0.140000X-0.170000X-0.140000X0*%
%ADD73R,0.400000X1.350000*%
%ADD74O,1.200000X1.900000*%
%ADD75R,1.200000X1.900000*%
%ADD76C,1.450000*%
%ADD77R,1.500000X1.900000*%
%ADD78RoundRect,0.250000X-1.425000X0.362500X-1.425000X-0.362500X1.425000X-0.362500X1.425000X0.362500X0*%
%ADD79RoundRect,0.250000X-0.450000X0.262500X-0.450000X-0.262500X0.450000X-0.262500X0.450000X0.262500X0*%
G04 APERTURE END LIST*
D10*
X275886400Y-181385200D03*
D11*
X61340000Y-120493800D03*
X58415000Y-120493800D03*
D12*
X69011800Y-84317300D03*
X69011800Y-81392300D03*
D13*
X150629500Y-69173300D03*
X147679500Y-69173300D03*
D14*
X151441900Y-122250200D03*
D15*
X196703800Y-90424000D03*
X199628800Y-90424000D03*
X125425800Y-87304000D03*
X128350800Y-87304000D03*
D14*
X177857900Y-123545600D03*
D16*
X106093500Y-77023000D03*
X106093500Y-75123000D03*
X104218500Y-76073000D03*
D17*
X54254400Y-145792400D03*
D18*
X56254400Y-145792400D03*
X54254400Y-147792400D03*
X56254400Y-147792400D03*
X54254400Y-149792400D03*
X56254400Y-149792400D03*
X54254400Y-151792400D03*
X56254400Y-151792400D03*
X54254400Y-153792400D03*
X56254400Y-153792400D03*
X54254400Y-155792400D03*
X56254400Y-155792400D03*
X54254400Y-157792400D03*
X56254400Y-157792400D03*
X54254400Y-159792400D03*
X56254400Y-159792400D03*
X54254400Y-161792400D03*
X56254400Y-161792400D03*
X54254400Y-163792400D03*
X56254400Y-163792400D03*
X54254400Y-165792400D03*
X56254400Y-165792400D03*
X54254400Y-167792400D03*
X56254400Y-167792400D03*
X54254400Y-169792400D03*
X56254400Y-169792400D03*
X54254400Y-171792400D03*
X56254400Y-171792400D03*
X54254400Y-173792400D03*
X56254400Y-173792400D03*
X54254400Y-175792400D03*
X56254400Y-175792400D03*
X54254400Y-177792400D03*
X56254400Y-177792400D03*
X54254400Y-179792400D03*
X56254400Y-179792400D03*
X54254400Y-181792400D03*
X56254400Y-181792400D03*
X54254400Y-183792400D03*
X56254400Y-183792400D03*
D12*
X141005400Y-73983400D03*
X141005400Y-71058400D03*
D19*
X105586000Y-79629000D03*
X108536000Y-79629000D03*
D14*
X95178000Y-106513600D03*
D11*
X222269000Y-147142200D03*
X219344000Y-147142200D03*
D20*
X202666600Y-83564000D03*
X202666600Y-84584000D03*
D14*
X145761383Y-170942000D03*
D12*
X111586400Y-93752100D03*
X111586400Y-90827100D03*
D14*
X154439100Y-124764800D03*
D21*
X241862800Y-101800200D03*
X239062800Y-101800200D03*
D22*
X67084400Y-133527800D03*
X67084400Y-134797800D03*
X67084400Y-136067800D03*
X67084400Y-137337800D03*
X72034400Y-137337800D03*
X72034400Y-136067800D03*
X72034400Y-134797800D03*
X72034400Y-133527800D03*
D11*
X223092500Y-179174400D03*
X220167500Y-179174400D03*
D23*
X110009500Y-75508600D03*
X110009500Y-76158600D03*
X110009500Y-76808600D03*
X110009500Y-77458600D03*
X114234500Y-77458600D03*
X114234500Y-76808600D03*
X114234500Y-76158600D03*
X114234500Y-75508600D03*
D24*
X207579000Y-99390200D03*
X207579000Y-98120200D03*
X207579000Y-96850200D03*
X207579000Y-95580200D03*
X207579000Y-94310200D03*
X207579000Y-93040200D03*
X207579000Y-91770200D03*
X202629000Y-91770200D03*
X202629000Y-93040200D03*
X202629000Y-94310200D03*
X202629000Y-95580200D03*
X202629000Y-96850200D03*
X202629000Y-98120200D03*
X202629000Y-99390200D03*
D11*
X37022500Y-158623000D03*
X34097500Y-158623000D03*
D25*
X123571000Y-63906400D03*
X123571000Y-63256400D03*
X123571000Y-62606400D03*
X121671000Y-62606400D03*
X121671000Y-63256400D03*
X121671000Y-63906400D03*
D26*
X106658800Y-90763800D03*
X106658800Y-93713800D03*
D14*
X228858000Y-115139000D03*
D15*
X134306900Y-72292600D03*
X137231900Y-72292600D03*
D27*
X89549200Y-96277400D03*
X88279200Y-96277400D03*
X87009200Y-96277400D03*
X85739200Y-96277400D03*
X84469200Y-96277400D03*
X83199200Y-96277400D03*
X81929200Y-96277400D03*
X81929200Y-101227400D03*
X83199200Y-101227400D03*
X84469200Y-101227400D03*
X85739200Y-101227400D03*
X87009200Y-101227400D03*
X88279200Y-101227400D03*
X89549200Y-101227400D03*
X174283600Y-129609100D03*
X173013600Y-129609100D03*
X171743600Y-129609100D03*
X170473600Y-129609100D03*
X169203600Y-129609100D03*
X167933600Y-129609100D03*
X166663600Y-129609100D03*
X165393600Y-129609100D03*
X165393600Y-134559100D03*
X166663600Y-134559100D03*
X167933600Y-134559100D03*
X169203600Y-134559100D03*
X170473600Y-134559100D03*
X171743600Y-134559100D03*
X173013600Y-134559100D03*
X174283600Y-134559100D03*
D28*
X144907000Y-165100000D03*
D29*
X140207000Y-165100000D03*
X135507000Y-165100000D03*
D30*
X243154200Y-157080200D03*
X243154200Y-161080200D03*
D14*
X212151000Y-106045000D03*
D15*
X221934500Y-110211400D03*
X224859500Y-110211400D03*
D31*
X111561000Y-105269000D03*
X111561000Y-108194000D03*
D15*
X200579300Y-60960000D03*
X203504300Y-60960000D03*
D12*
X262894300Y-137911300D03*
X262894300Y-134986300D03*
D14*
X167926500Y-125069600D03*
D32*
X117932200Y-79046600D03*
X117932200Y-76096600D03*
D14*
X227258100Y-166065200D03*
D10*
X275886400Y-46385200D03*
D19*
X209599000Y-72644000D03*
X212549000Y-72644000D03*
D17*
X117602000Y-184531000D03*
D18*
X115602000Y-184531000D03*
X113602000Y-184531000D03*
D11*
X148585700Y-99419800D03*
X145660700Y-99419800D03*
D13*
X148185400Y-136278100D03*
X145235400Y-136278100D03*
D22*
X64708000Y-115189000D03*
X64708000Y-116459000D03*
X64708000Y-117729000D03*
X64708000Y-118999000D03*
X69658000Y-118999000D03*
X69658000Y-117729000D03*
X69658000Y-116459000D03*
X69658000Y-115189000D03*
D23*
X127843900Y-75838800D03*
X127843900Y-76488800D03*
X127843900Y-77138800D03*
X127843900Y-77788800D03*
X132068900Y-77788800D03*
X132068900Y-77138800D03*
X132068900Y-76488800D03*
X132068900Y-75838800D03*
D20*
X205841600Y-83564000D03*
X205841600Y-84584000D03*
D26*
X109122600Y-90789200D03*
X109122600Y-93739200D03*
D25*
X134083500Y-117002800D03*
X134083500Y-117652800D03*
X134083500Y-118302800D03*
X135983500Y-118302800D03*
X135983500Y-117652800D03*
X135983500Y-117002800D03*
D33*
X243572600Y-72113600D03*
X247847600Y-72113600D03*
D25*
X175201100Y-118480600D03*
X175201100Y-117830600D03*
X175201100Y-117180600D03*
X173301100Y-117180600D03*
X173301100Y-117830600D03*
X173301100Y-118480600D03*
D34*
X206613800Y-106430000D03*
X206613800Y-105410000D03*
D14*
X226572300Y-148920200D03*
D35*
X162093500Y-165227000D03*
X156168500Y-165227000D03*
D36*
X166544800Y-151332200D03*
D37*
X181784800Y-151332200D03*
D12*
X143764000Y-182056500D03*
X143764000Y-179131500D03*
D11*
X208431900Y-61010800D03*
X205506900Y-61010800D03*
D38*
X75289400Y-66421000D03*
X72589400Y-66421000D03*
D39*
X239043400Y-107696000D03*
X239043400Y-104896000D03*
D19*
X251614600Y-118208600D03*
X254564600Y-118208600D03*
D31*
X101832800Y-105279700D03*
X101832800Y-108204700D03*
X153111200Y-67396900D03*
X153111200Y-70321900D03*
D14*
X240969800Y-82588900D03*
D12*
X114228000Y-88708200D03*
X114228000Y-85783200D03*
D13*
X133104200Y-92180800D03*
X130154200Y-92180800D03*
D40*
X160266183Y-170653400D03*
X160266183Y-169703400D03*
X160266183Y-168753400D03*
X157991183Y-168753400D03*
X157991183Y-170653400D03*
D41*
X179244800Y-166249400D03*
D29*
X179244800Y-161549400D03*
X179244800Y-156849400D03*
D14*
X123197100Y-124180600D03*
D19*
X130177300Y-94629000D03*
X133127300Y-94629000D03*
D42*
X129057000Y-164418800D03*
D43*
X127914000Y-168990800D03*
X123342000Y-168990800D03*
D44*
X119913000Y-167847800D03*
D42*
X119913000Y-164418800D03*
X119913000Y-159846800D03*
X124485000Y-159846800D03*
X126771000Y-159846800D03*
X129057000Y-159846800D03*
X129057000Y-162132800D03*
X119913000Y-162132800D03*
X122199000Y-159846800D03*
D45*
X121272800Y-184448000D03*
X121272800Y-180448000D03*
D46*
X50277000Y-81239400D03*
X50927000Y-81239400D03*
X51577000Y-81239400D03*
X51577000Y-79339400D03*
X50927000Y-79339400D03*
X50277000Y-79339400D03*
D47*
X124220000Y-55571000D03*
X129220000Y-55571000D03*
X134220000Y-55571000D03*
X139220000Y-55571000D03*
X144220000Y-55571000D03*
X149220000Y-55571000D03*
X154220000Y-55571000D03*
X159220000Y-55571000D03*
X124220000Y-47371000D03*
X129220000Y-47371000D03*
X134220000Y-47371000D03*
X139220000Y-47371000D03*
X144220000Y-47371000D03*
X149220000Y-47371000D03*
X154220000Y-47371000D03*
X159220000Y-47371000D03*
D14*
X54238700Y-115058200D03*
D12*
X201203600Y-108335000D03*
X201203600Y-105410000D03*
D31*
X236902800Y-129118900D03*
X236902800Y-132043900D03*
D19*
X210877400Y-102235000D03*
X213827400Y-102235000D03*
D31*
X251692900Y-160818100D03*
X251692900Y-163743100D03*
X237341900Y-177960500D03*
X237341900Y-180885500D03*
D14*
X210830200Y-60709000D03*
D15*
X151756700Y-72749800D03*
X154681700Y-72749800D03*
D17*
X72517000Y-60452000D03*
D18*
X74517000Y-60452000D03*
X76517000Y-60452000D03*
D33*
X229710700Y-121694200D03*
X233985700Y-121694200D03*
D27*
X148056600Y-128785100D03*
X146786600Y-128785100D03*
X145516600Y-128785100D03*
X144246600Y-128785100D03*
X142976600Y-128785100D03*
X141706600Y-128785100D03*
X140436600Y-128785100D03*
X139166600Y-128785100D03*
X139166600Y-133735100D03*
X140436600Y-133735100D03*
X141706600Y-133735100D03*
X142976600Y-133735100D03*
X144246600Y-133735100D03*
X145516600Y-133735100D03*
X146786600Y-133735100D03*
X148056600Y-133735100D03*
D48*
X117885200Y-73334000D03*
X116925200Y-73334000D03*
D14*
X181794900Y-123698000D03*
D49*
X183163200Y-55113800D03*
X188163200Y-55113800D03*
X193163200Y-55113800D03*
X198163200Y-55113800D03*
X203163200Y-55113800D03*
X208163200Y-55113800D03*
X213163200Y-55113800D03*
X218163200Y-55113800D03*
X223163200Y-55113800D03*
X228163200Y-55113800D03*
X183163200Y-46913800D03*
X188163200Y-46913800D03*
X193163200Y-46913800D03*
X198163200Y-46913800D03*
X203163200Y-46913800D03*
X208163200Y-46913800D03*
X213163200Y-46913800D03*
X218163200Y-46913800D03*
X223163200Y-46913800D03*
X228163200Y-46913800D03*
D50*
X94314400Y-96988600D03*
X94314400Y-99528600D03*
X94314400Y-102068600D03*
D31*
X161698683Y-172449400D03*
X161698683Y-175374400D03*
D12*
X101756600Y-93675900D03*
X101756600Y-90750900D03*
D51*
X276124800Y-71822607D03*
X267924800Y-76822607D03*
X267924800Y-81822607D03*
X267924800Y-86822607D03*
X267924800Y-71822607D03*
X276124800Y-76822607D03*
X276124800Y-81822607D03*
X276124800Y-86822607D03*
D14*
X73710800Y-119786400D03*
D52*
X125492000Y-181422000D03*
X125492000Y-183322000D03*
X127592000Y-182372000D03*
D14*
X135084300Y-124688600D03*
D15*
X257515900Y-71717700D03*
X260440900Y-71717700D03*
D14*
X116586000Y-96266000D03*
D19*
X194359000Y-72390000D03*
X197309000Y-72390000D03*
D14*
X114071400Y-116814600D03*
D48*
X163240300Y-72938600D03*
X162280300Y-72938600D03*
D14*
X197901600Y-60807600D03*
D48*
X256029400Y-144348200D03*
X255069400Y-144348200D03*
D46*
X50683400Y-127924600D03*
X51333400Y-127924600D03*
X51983400Y-127924600D03*
X51983400Y-126024600D03*
X51333400Y-126024600D03*
X50683400Y-126024600D03*
D53*
X240665000Y-79177000D03*
D54*
X243205000Y-79177000D03*
X245745000Y-79177000D03*
D35*
X260569300Y-159689800D03*
X254644300Y-159689800D03*
D34*
X64287400Y-108081000D03*
X64287400Y-107061000D03*
D33*
X232333900Y-104365600D03*
X236608900Y-104365600D03*
D12*
X68656200Y-109945900D03*
X68656200Y-107020900D03*
D33*
X230018500Y-137591800D03*
X234293500Y-137591800D03*
D32*
X153924000Y-82247000D03*
X153924000Y-79297000D03*
D55*
X259332500Y-147759500D03*
X258682500Y-147759500D03*
X258032500Y-147759500D03*
X257382500Y-147759500D03*
X256732500Y-147759500D03*
X256082500Y-147759500D03*
X255432500Y-147759500D03*
X255432500Y-153484500D03*
X256082500Y-153484500D03*
X256732500Y-153484500D03*
X257382500Y-153484500D03*
X258032500Y-153484500D03*
X258682500Y-153484500D03*
X259332500Y-153484500D03*
D32*
X104220400Y-108217200D03*
X104220400Y-105267200D03*
D15*
X115891900Y-70921000D03*
X118816900Y-70921000D03*
D11*
X213867500Y-99872800D03*
X210942500Y-99872800D03*
D12*
X123225400Y-74019800D03*
X123225400Y-71094800D03*
D34*
X67437000Y-128145000D03*
X67437000Y-127125000D03*
X65633600Y-60835000D03*
X65633600Y-59815000D03*
D16*
X158798500Y-78801000D03*
X158798500Y-76901000D03*
X156923500Y-77851000D03*
D11*
X218820500Y-87807800D03*
X215895500Y-87807800D03*
D56*
X162792800Y-150347200D03*
X162142800Y-150347200D03*
X161492800Y-150347200D03*
X161492800Y-152122200D03*
X162142800Y-152122200D03*
X162792800Y-152122200D03*
D57*
X162142800Y-151234700D03*
D31*
X50292000Y-167447500D03*
X50292000Y-170372500D03*
D15*
X219318600Y-144576800D03*
X222243600Y-144576800D03*
D31*
X127086200Y-67056200D03*
X127086200Y-69981200D03*
D25*
X147926500Y-117206000D03*
X147926500Y-117856000D03*
X147926500Y-118506000D03*
X149826500Y-118506000D03*
X149826500Y-117856000D03*
X149826500Y-117206000D03*
D38*
X78058000Y-132537200D03*
X75358000Y-132537200D03*
D14*
X117961800Y-105192800D03*
D11*
X61294400Y-90994200D03*
X58369400Y-90994200D03*
D14*
X73355200Y-139954000D03*
D19*
X210904600Y-97485200D03*
X213854600Y-97485200D03*
D31*
X262864600Y-83729100D03*
X262864600Y-86654100D03*
D38*
X74603600Y-114274600D03*
X71903600Y-114274600D03*
D11*
X61279500Y-68072000D03*
X58354500Y-68072000D03*
D16*
X124254500Y-78166000D03*
X124254500Y-76266000D03*
X122379500Y-77216000D03*
D13*
X213883000Y-95097600D03*
X210933000Y-95097600D03*
D47*
X200427200Y-172703400D03*
X195427200Y-172703400D03*
X200427200Y-180903400D03*
X195427200Y-180903400D03*
D32*
X33914399Y-175261800D03*
D58*
X33914399Y-172311800D03*
D21*
X239932700Y-170284400D03*
X237132700Y-170284400D03*
D11*
X213943700Y-90246200D03*
X211018700Y-90246200D03*
D14*
X211516000Y-84937600D03*
D31*
X237042700Y-145040900D03*
X237042700Y-147965900D03*
D14*
X161957500Y-129006600D03*
X78439400Y-93661200D03*
D11*
X114238500Y-175133000D03*
X111313500Y-175133000D03*
D47*
X251371384Y-54883800D03*
X256371384Y-54883800D03*
X251371384Y-46683800D03*
X256371384Y-46683800D03*
D39*
X116576800Y-174832000D03*
X116576800Y-172032000D03*
D31*
X250311400Y-78753700D03*
X250311400Y-81678700D03*
D14*
X79049000Y-71537800D03*
D26*
X104195000Y-90763800D03*
X104195000Y-93713800D03*
D34*
X203540400Y-106682000D03*
X203540400Y-105662000D03*
D31*
X208239400Y-81733200D03*
X208239400Y-84658200D03*
D30*
X243611400Y-140570200D03*
X243611400Y-144570200D03*
D15*
X196616900Y-100076000D03*
X199541900Y-100076000D03*
D25*
X120487100Y-117597200D03*
X120487100Y-118247200D03*
X120487100Y-118897200D03*
X122387100Y-118897200D03*
X122387100Y-118247200D03*
X122387100Y-117597200D03*
D15*
X244159500Y-101851000D03*
X247084500Y-101851000D03*
D22*
X64900000Y-90017600D03*
X64900000Y-91287600D03*
X64900000Y-92557600D03*
X64900000Y-93827600D03*
X69850000Y-93827600D03*
X69850000Y-92557600D03*
X69850000Y-91287600D03*
X69850000Y-90017600D03*
D14*
X133992100Y-128574800D03*
D53*
X228854000Y-111562000D03*
D54*
X231394000Y-111562000D03*
X233934000Y-111562000D03*
D13*
X124468900Y-136067800D03*
X121518900Y-136067800D03*
D14*
X129159000Y-177546000D03*
D32*
X114151800Y-93739200D03*
X114151800Y-90789200D03*
D59*
X151835883Y-155234900D03*
X151835883Y-156184900D03*
X151835883Y-157134900D03*
X154110883Y-157134900D03*
X154110883Y-155234900D03*
D13*
X199554400Y-97713800D03*
X196604400Y-97713800D03*
D21*
X240157000Y-121335800D03*
X237357000Y-121335800D03*
D39*
X237341900Y-175723000D03*
X237341900Y-172923000D03*
D31*
X162455500Y-67615300D03*
X162455500Y-70540300D03*
D26*
X85678400Y-91017800D03*
X85678400Y-93967800D03*
D13*
X75367800Y-68972400D03*
X72417800Y-68972400D03*
D32*
X109148000Y-108219000D03*
X109148000Y-105269000D03*
D23*
X145544100Y-75788000D03*
X145544100Y-76438000D03*
X145544100Y-77088000D03*
X145544100Y-77738000D03*
X149769100Y-77738000D03*
X149769100Y-77088000D03*
X149769100Y-76438000D03*
X149769100Y-75788000D03*
D60*
X154093600Y-153722400D03*
X155053600Y-153722400D03*
D61*
X240538000Y-55107000D03*
X241488000Y-55107000D03*
X242438000Y-55107000D03*
X242438000Y-52832000D03*
X240538000Y-52832000D03*
D20*
X202666600Y-81405000D03*
X202666600Y-82425000D03*
D14*
X152552417Y-165344600D03*
D22*
X137039400Y-90631400D03*
X137039400Y-91901400D03*
X137039400Y-93171400D03*
X137039400Y-94441400D03*
X137039400Y-95711400D03*
X137039400Y-96981400D03*
X137039400Y-98251400D03*
X141989400Y-98251400D03*
X141989400Y-96981400D03*
X141989400Y-95711400D03*
X141989400Y-94441400D03*
X141989400Y-93171400D03*
X141989400Y-91901400D03*
X141989400Y-90631400D03*
D14*
X197825400Y-106262900D03*
D13*
X78206900Y-134844800D03*
X75256900Y-134844800D03*
X114383700Y-67456800D03*
X111433700Y-67456800D03*
D39*
X250209800Y-74834400D03*
X250209800Y-72034400D03*
X152476200Y-172138800D03*
X152476200Y-169338800D03*
D15*
X240370400Y-50057900D03*
X243295400Y-50057900D03*
D14*
X67843400Y-122123200D03*
D17*
X74835000Y-128524000D03*
D18*
X76835000Y-128524000D03*
X78835000Y-128524000D03*
D25*
X158064200Y-65013600D03*
X158064200Y-64363600D03*
X158064200Y-63713600D03*
X156164200Y-63713600D03*
X156164200Y-64363600D03*
X156164200Y-65013600D03*
D11*
X63438500Y-133727200D03*
X60513500Y-133727200D03*
D21*
X143640000Y-184404000D03*
X140840000Y-184404000D03*
D15*
X191943300Y-88061800D03*
X194868300Y-88061800D03*
D14*
X95000200Y-92467400D03*
D62*
X36581399Y-163423600D03*
X36581399Y-164693600D03*
X36581399Y-165963600D03*
X36581399Y-167233600D03*
X36581399Y-168503600D03*
X36581399Y-169773600D03*
X36581399Y-171043600D03*
X36581399Y-172313600D03*
X36581399Y-173583600D03*
X45881399Y-173583600D03*
X45881399Y-172313600D03*
X45881399Y-171043600D03*
X45881399Y-169773600D03*
X45881399Y-168503600D03*
X45881399Y-167233600D03*
X45881399Y-165963600D03*
X45881399Y-164693600D03*
X45881399Y-163423600D03*
D31*
X135493600Y-67310200D03*
X135493600Y-70235200D03*
D14*
X227461300Y-181638200D03*
D15*
X33970500Y-149127800D03*
X36895500Y-149127800D03*
D48*
X127462800Y-72445000D03*
X126502800Y-72445000D03*
D32*
X169526000Y-80879600D03*
X169526000Y-77929600D03*
D33*
X230217800Y-153847800D03*
X234492800Y-153847800D03*
D21*
X37087000Y-161036000D03*
X34287000Y-161036000D03*
D13*
X74830200Y-116586000D03*
X71880200Y-116586000D03*
D32*
X99140400Y-93677700D03*
X99140400Y-90727700D03*
D14*
X54897400Y-67561800D03*
D53*
X227330000Y-162743000D03*
D54*
X229870000Y-162743000D03*
X232410000Y-162743000D03*
D15*
X220192900Y-176659800D03*
X223117900Y-176659800D03*
D48*
X170260000Y-75670800D03*
X169300000Y-75670800D03*
D40*
X254354100Y-115501000D03*
X254354100Y-114551000D03*
X254354100Y-113601000D03*
X252079100Y-113601000D03*
X252079100Y-115501000D03*
D12*
X114046000Y-180786500D03*
X114046000Y-177861500D03*
D14*
X54897400Y-73061800D03*
X70184400Y-75347800D03*
D12*
X33888999Y-169635900D03*
X33888999Y-166710900D03*
D38*
X75086200Y-88900000D03*
X72386200Y-88900000D03*
D14*
X196580800Y-84048600D03*
D19*
X145612100Y-87354800D03*
X148562100Y-87354800D03*
D63*
X196645000Y-156687400D03*
D29*
X196645000Y-161387400D03*
X196645000Y-166087400D03*
D64*
X251714000Y-149054000D03*
X251714000Y-143129000D03*
D31*
X144557100Y-67162700D03*
X144557100Y-70087700D03*
D14*
X185112200Y-166826200D03*
X54904300Y-95617000D03*
D39*
X236852000Y-127028400D03*
X236852000Y-124228400D03*
D15*
X220721500Y-60756800D03*
X223646500Y-60756800D03*
D12*
X105161700Y-73084900D03*
X105161700Y-70159900D03*
D32*
X85725000Y-106582000D03*
X85725000Y-103632000D03*
D20*
X205841600Y-81532000D03*
X205841600Y-82552000D03*
D39*
X237113300Y-159251500D03*
X237113300Y-156451500D03*
D21*
X239808700Y-154127200D03*
X237008700Y-154127200D03*
D14*
X227200000Y-132413000D03*
D13*
X174463200Y-137127500D03*
X171513200Y-137127500D03*
D14*
X188910000Y-61064600D03*
D11*
X153274000Y-87329400D03*
X150349000Y-87329400D03*
D14*
X69930400Y-97826800D03*
D13*
X148541000Y-94488000D03*
X145591000Y-94488000D03*
D31*
X239119600Y-109761100D03*
X239119600Y-112686100D03*
D48*
X153743600Y-75184000D03*
X152783600Y-75184000D03*
D12*
X149250417Y-172268100D03*
X149250417Y-169343100D03*
D19*
X260272000Y-166319200D03*
X263222000Y-166319200D03*
D14*
X54035500Y-120239800D03*
D34*
X64871600Y-84330000D03*
X64871600Y-83310000D03*
D19*
X120004000Y-173203400D03*
X122954000Y-173203400D03*
D32*
X161924983Y-180681400D03*
X161924983Y-177731400D03*
D31*
X113948600Y-110069600D03*
X113948600Y-112994600D03*
D14*
X163760900Y-123571000D03*
D15*
X242501500Y-121488200D03*
X245426500Y-121488200D03*
D19*
X145648200Y-101807400D03*
X148598200Y-101807400D03*
D13*
X199554400Y-102554500D03*
X196604400Y-102554500D03*
D34*
X206603600Y-108587000D03*
X206603600Y-107567000D03*
D31*
X99419800Y-110029500D03*
X99419800Y-112954500D03*
X237032800Y-162824700D03*
X237032800Y-165749700D03*
D33*
X229967700Y-170459400D03*
X234242700Y-170459400D03*
D14*
X54599500Y-90740200D03*
D11*
X236387100Y-79007500D03*
X233462100Y-79007500D03*
D14*
X144406100Y-120650000D03*
D13*
X133127800Y-87329400D03*
X130177800Y-87329400D03*
D14*
X162338500Y-120650000D03*
D30*
X243430600Y-125558800D03*
X243430600Y-129558800D03*
D65*
X132816600Y-169617400D03*
X132816600Y-172317400D03*
D13*
X167511900Y-69306400D03*
X164561900Y-69306400D03*
D60*
X158016000Y-172135800D03*
X158976000Y-172135800D03*
D25*
X165970700Y-116408200D03*
X165970700Y-117058200D03*
X165970700Y-117708200D03*
X167870700Y-117708200D03*
X167870700Y-117058200D03*
X167870700Y-116408200D03*
D11*
X61523000Y-95871000D03*
X58598000Y-95871000D03*
D47*
X185318000Y-172703400D03*
X180318000Y-172703400D03*
X185318000Y-180903400D03*
X180318000Y-180903400D03*
D19*
X143686000Y-80772000D03*
X146636000Y-80772000D03*
D11*
X186268400Y-60960000D03*
X183343400Y-60960000D03*
D17*
X72549000Y-108712000D03*
D18*
X74549000Y-108712000D03*
X76549000Y-108712000D03*
D19*
X125144000Y-80264000D03*
X128094000Y-80264000D03*
D11*
X61359900Y-73061800D03*
X58434900Y-73061800D03*
D13*
X133155000Y-97057600D03*
X130205000Y-97057600D03*
D15*
X125416900Y-101909000D03*
X128341900Y-101909000D03*
X168165100Y-73283200D03*
X171090100Y-73283200D03*
D14*
X55120200Y-139227200D03*
D13*
X75162800Y-91349800D03*
X72212800Y-91349800D03*
D39*
X237042700Y-142903400D03*
X237042700Y-140103400D03*
D12*
X72009000Y-129859500D03*
X72009000Y-126934500D03*
D19*
X211031600Y-92633800D03*
X213981600Y-92633800D03*
D48*
X109728000Y-71374000D03*
X108768000Y-71374000D03*
D31*
X117201300Y-65943500D03*
X117201300Y-68868500D03*
D14*
X137522700Y-121894600D03*
D48*
X145646700Y-72703900D03*
X144686700Y-72703900D03*
D53*
X227203000Y-129088000D03*
D54*
X229743000Y-129088000D03*
X232283000Y-129088000D03*
D11*
X243447800Y-46247900D03*
X240522800Y-46247900D03*
X222591900Y-129517400D03*
X219666900Y-129517400D03*
D66*
X149722183Y-156060500D03*
X149722183Y-157020500D03*
D34*
X64871600Y-82298000D03*
X64871600Y-81278000D03*
D13*
X199656000Y-88061800D03*
X196706000Y-88061800D03*
D31*
X262915400Y-88845200D03*
X262915400Y-91770200D03*
D15*
X220228700Y-162687000D03*
X223153700Y-162687000D03*
D11*
X63692500Y-138963400D03*
X60767500Y-138963400D03*
D26*
X99394400Y-105267200D03*
X99394400Y-108217200D03*
D19*
X145648200Y-92130000D03*
X148598200Y-92130000D03*
D12*
X99191200Y-88748300D03*
X99191200Y-85823300D03*
D34*
X65633600Y-63121000D03*
X65633600Y-62101000D03*
D31*
X169643700Y-67945500D03*
X169643700Y-70870500D03*
D19*
X211020900Y-87807800D03*
X213970900Y-87807800D03*
D31*
X200416200Y-81798700D03*
X200416200Y-84723700D03*
D11*
X224884900Y-112649800D03*
X221959900Y-112649800D03*
D15*
X256235200Y-115417600D03*
X259160200Y-115417600D03*
X130192100Y-99496000D03*
X133117100Y-99496000D03*
D12*
X69469000Y-62930500D03*
X69469000Y-60005500D03*
D15*
X126208600Y-156464000D03*
X129133600Y-156464000D03*
D21*
X239732500Y-137591800D03*
X236932500Y-137591800D03*
D67*
X169084800Y-184654800D03*
X169084800Y-162154800D03*
D14*
X171457100Y-121132600D03*
D68*
X33959800Y-155223800D03*
D69*
X35229800Y-155223800D03*
X36499800Y-155223800D03*
D13*
X199605200Y-92837000D03*
X196655200Y-92837000D03*
D15*
X241899200Y-137617200D03*
X244824200Y-137617200D03*
D17*
X72676000Y-82804000D03*
D18*
X74676000Y-82804000D03*
X76676000Y-82804000D03*
D22*
X65038200Y-67513200D03*
X65038200Y-68783200D03*
X65038200Y-70053200D03*
X65038200Y-71323200D03*
X69988200Y-71323200D03*
X69988200Y-70053200D03*
X69988200Y-68783200D03*
X69988200Y-67513200D03*
D14*
X55120200Y-133727200D03*
D15*
X219622700Y-126291800D03*
X222547700Y-126291800D03*
D23*
X161871300Y-76037400D03*
X161871300Y-76687400D03*
X161871300Y-77337400D03*
X161871300Y-77987400D03*
X166096300Y-77987400D03*
X166096300Y-77337400D03*
X166096300Y-76687400D03*
X166096300Y-76037400D03*
D32*
X238302300Y-50542300D03*
X238302300Y-47592300D03*
D70*
X267948800Y-122298400D03*
X267948800Y-127298400D03*
X267948800Y-132298400D03*
X267948800Y-137298400D03*
X267948800Y-142298400D03*
X267948800Y-147298400D03*
X267948800Y-152298400D03*
X267948800Y-157298400D03*
X267948800Y-162298400D03*
X267948800Y-167298400D03*
X276148800Y-122298400D03*
X276148800Y-127298400D03*
X276148800Y-132298400D03*
X276148800Y-137298400D03*
X276148800Y-142298400D03*
X276148800Y-147298400D03*
X276148800Y-152298400D03*
X276148800Y-157298400D03*
X276148800Y-162298400D03*
X276148800Y-167298400D03*
D13*
X133155000Y-101883600D03*
X130205000Y-101883600D03*
X133285600Y-68584200D03*
X130335600Y-68584200D03*
D11*
X148560300Y-89717000D03*
X145635300Y-89717000D03*
D31*
X263144000Y-161122900D03*
X263144000Y-164047900D03*
D21*
X255527000Y-71732400D03*
X252727000Y-71732400D03*
D34*
X203555600Y-108970000D03*
X203555600Y-107950000D03*
D12*
X251739400Y-137972800D03*
X251739400Y-135047800D03*
D15*
X241873800Y-154127200D03*
X244798800Y-154127200D03*
D27*
X110519600Y-97220200D03*
X109249600Y-97220200D03*
X107979600Y-97220200D03*
X106709600Y-97220200D03*
X105439600Y-97220200D03*
X104169600Y-97220200D03*
X102899600Y-97220200D03*
X102899600Y-102170200D03*
X104169600Y-102170200D03*
X105439600Y-102170200D03*
X106709600Y-102170200D03*
X107979600Y-102170200D03*
X109249600Y-102170200D03*
X110519600Y-102170200D03*
D66*
X60325000Y-174272000D03*
X60325000Y-175232000D03*
D71*
X255990500Y-141732000D03*
X261915500Y-141732000D03*
D53*
X227457000Y-177983000D03*
D54*
X229997000Y-177983000D03*
X232537000Y-177983000D03*
D15*
X33970500Y-145837800D03*
X36895500Y-145837800D03*
D72*
X48260000Y-175994000D03*
X48260000Y-175034000D03*
D30*
X245839900Y-105718400D03*
X245839900Y-109718400D03*
D51*
X267263000Y-57340784D03*
X267263000Y-62340784D03*
X275463000Y-57340784D03*
X275463000Y-62340784D03*
X44520600Y-104142194D03*
X44520600Y-109142194D03*
X44520600Y-114142194D03*
X44520600Y-119142194D03*
X44520600Y-124142194D03*
X44520600Y-129142194D03*
X44520600Y-134142194D03*
X44520600Y-139142194D03*
X36320600Y-139142194D03*
X36320600Y-134142194D03*
X36320600Y-129142194D03*
X36320600Y-124142194D03*
X36320600Y-119142194D03*
X36320600Y-114142194D03*
X36320600Y-109142194D03*
X36320600Y-104142194D03*
D73*
X136398000Y-183570500D03*
X135748000Y-183570500D03*
X135098000Y-183570500D03*
X134448000Y-183570500D03*
X133798000Y-183570500D03*
D74*
X138598000Y-180870500D03*
D75*
X137998000Y-180870500D03*
D76*
X137598000Y-183570500D03*
D77*
X136098000Y-180870500D03*
X134098000Y-180870500D03*
D76*
X132598000Y-183570500D03*
D75*
X132198000Y-180870500D03*
D74*
X131598000Y-180870500D03*
D11*
X60771500Y-115312200D03*
X57846500Y-115312200D03*
X153360900Y-101756600D03*
X150435900Y-101756600D03*
D30*
X243408200Y-173387000D03*
X243408200Y-177387000D03*
D12*
X209230000Y-108269500D03*
X209230000Y-105344500D03*
D24*
X206244000Y-76849200D03*
X206244000Y-75579200D03*
X206244000Y-74309200D03*
X206244000Y-73039200D03*
X206244000Y-71769200D03*
X206244000Y-70499200D03*
X206244000Y-69229200D03*
X201294000Y-69229200D03*
X201294000Y-70499200D03*
X201294000Y-71769200D03*
X201294000Y-73039200D03*
X201294000Y-74309200D03*
X201294000Y-75579200D03*
X201294000Y-76849200D03*
D78*
X251515100Y-150900000D03*
X251515100Y-156825000D03*
D14*
X113274800Y-168275800D03*
D10*
X35886400Y-181385200D03*
D32*
X106654600Y-108231200D03*
X106654600Y-105281200D03*
D15*
X242534200Y-170233600D03*
X245459200Y-170233600D03*
D14*
X173946300Y-123469400D03*
D11*
X218642700Y-102235000D03*
X215717700Y-102235000D03*
D14*
X119463300Y-123672600D03*
D15*
X233411300Y-76391300D03*
X236336300Y-76391300D03*
D32*
X134499400Y-80803400D03*
X134499400Y-77853400D03*
D14*
X140519900Y-119430800D03*
D53*
X226949000Y-145471000D03*
D54*
X229489000Y-145471000D03*
X232029000Y-145471000D03*
D31*
X160339383Y-154239800D03*
X160339383Y-157164800D03*
D15*
X119711700Y-156439400D03*
X122636700Y-156439400D03*
D16*
X142161500Y-78420000D03*
X142161500Y-76520000D03*
X140286500Y-77470000D03*
D19*
X196619600Y-95250000D03*
X199569600Y-95250000D03*
D11*
X223204500Y-165252400D03*
X220279500Y-165252400D03*
D71*
X250079600Y-110514000D03*
X256004600Y-110514000D03*
D27*
X124467100Y-128600200D03*
X123197100Y-128600200D03*
X121927100Y-128600200D03*
X120657100Y-128600200D03*
X119387100Y-128600200D03*
X118117100Y-128600200D03*
X116847100Y-128600200D03*
X116847100Y-133550200D03*
X118117100Y-133550200D03*
X119387100Y-133550200D03*
X120657100Y-133550200D03*
X121927100Y-133550200D03*
X123197100Y-133550200D03*
X124467100Y-133550200D03*
D14*
X217637400Y-60607400D03*
D13*
X254459000Y-132867400D03*
X251509000Y-132867400D03*
D10*
X35886400Y-46385200D03*
D34*
X67411600Y-130685000D03*
X67411600Y-129665000D03*
D14*
X147454100Y-122174000D03*
D26*
X113974000Y-105269000D03*
X113974000Y-108219000D03*
D51*
X44293400Y-60144600D03*
X44293400Y-65144600D03*
X44293400Y-70144600D03*
X44293400Y-75144600D03*
X44293400Y-80144600D03*
X44293400Y-85144600D03*
X44293400Y-90144600D03*
X44293400Y-95144600D03*
X36093400Y-60144600D03*
X36093400Y-65144600D03*
X36093400Y-70144600D03*
X36093400Y-75144600D03*
X36093400Y-80144600D03*
X36093400Y-85144600D03*
X36093400Y-90144600D03*
X36093400Y-95144600D03*
D19*
X256313600Y-118186200D03*
X259263600Y-118186200D03*
D15*
X130166700Y-89767800D03*
X133091700Y-89767800D03*
D31*
X108844700Y-65714900D03*
X108844700Y-68639900D03*
D19*
X260123900Y-132892800D03*
X263073900Y-132892800D03*
D14*
X127008100Y-128981200D03*
D12*
X158827600Y-73887900D03*
X158827600Y-70962900D03*
D79*
X160339383Y-159742500D03*
X160339383Y-161567500D03*
D48*
X136224000Y-74705600D03*
X135264000Y-74705600D03*
D19*
X238300500Y-57246100D03*
X241250500Y-57246100D03*
D13*
X254387100Y-166014400D03*
X251437100Y-166014400D03*
D12*
X118110000Y-180913500D03*
X118110000Y-177988500D03*
D34*
X64363600Y-110619000D03*
X64363600Y-109599000D03*
D19*
X159307000Y-81153000D03*
X162257000Y-81153000D03*
D15*
X191854200Y-102554500D03*
X194779200Y-102554500D03*
D19*
X145648200Y-97006800D03*
X148598200Y-97006800D03*
M02*
