G04 #@! TF.GenerationSoftware,KiCad,Pcbnew,7.0.10*
G04 #@! TF.CreationDate,2024-12-17T12:16:58-06:00*
G04 #@! TF.ProjectId,karca_v2,6b617263-615f-4763-922e-6b696361645f,rev?*
G04 #@! TF.SameCoordinates,Original*
G04 #@! TF.FileFunction,Legend,Bot*
G04 #@! TF.FilePolarity,Positive*
%FSLAX46Y46*%
G04 Gerber Fmt 4.6, Leading zero omitted, Abs format (unit mm)*
G04 Created by KiCad (PCBNEW 7.0.10) date 2024-12-17 12:16:58*
%MOMM*%
%LPD*%
G01*
G04 APERTURE LIST*
G04 Aperture macros list*
%AMRoundRect*
0 Rectangle with rounded corners*
0 $1 Rounding radius*
0 $2 $3 $4 $5 $6 $7 $8 $9 X,Y pos of 4 corners*
0 Add a 4 corners polygon primitive as box body*
4,1,4,$2,$3,$4,$5,$6,$7,$8,$9,$2,$3,0*
0 Add four circle primitives for the rounded corners*
1,1,$1+$1,$2,$3*
1,1,$1+$1,$4,$5*
1,1,$1+$1,$6,$7*
1,1,$1+$1,$8,$9*
0 Add four rect primitives between the rounded corners*
20,1,$1+$1,$2,$3,$4,$5,0*
20,1,$1+$1,$4,$5,$6,$7,0*
20,1,$1+$1,$6,$7,$8,$9,0*
20,1,$1+$1,$8,$9,$2,$3,0*%
G04 Aperture macros list end*
%ADD10C,3.200000*%
%ADD11R,1.350000X1.350000*%
%ADD12O,1.350000X1.350000*%
%ADD13RoundRect,0.102000X1.387500X1.387500X-1.387500X1.387500X-1.387500X-1.387500X1.387500X-1.387500X0*%
%ADD14C,2.979000*%
%ADD15R,3.200000X3.200000*%
%ADD16O,3.200000X3.200000*%
%ADD17RoundRect,0.102000X1.387500X-1.387500X1.387500X1.387500X-1.387500X1.387500X-1.387500X-1.387500X0*%
%ADD18O,2.134400X4.064800*%
%ADD19O,2.154000X4.104000*%
%ADD20C,1.440000*%
%ADD21O,4.064800X2.134400*%
%ADD22R,1.905000X2.000000*%
%ADD23O,1.905000X2.000000*%
%ADD24RoundRect,0.102000X-1.387500X1.387500X-1.387500X-1.387500X1.387500X-1.387500X1.387500X1.387500X0*%
%ADD25C,2.184000*%
%ADD26R,1.050000X1.500000*%
%ADD27O,1.050000X1.500000*%
%ADD28O,4.104000X2.154000*%
%ADD29O,1.200000X1.900000*%
%ADD30C,1.450000*%
G04 APERTURE END LIST*
%LPC*%
D10*
X275886400Y-181385200D03*
D11*
X54254400Y-145792400D03*
D12*
X56254400Y-145792400D03*
X54254400Y-147792400D03*
X56254400Y-147792400D03*
X54254400Y-149792400D03*
X56254400Y-149792400D03*
X54254400Y-151792400D03*
X56254400Y-151792400D03*
X54254400Y-153792400D03*
X56254400Y-153792400D03*
X54254400Y-155792400D03*
X56254400Y-155792400D03*
X54254400Y-157792400D03*
X56254400Y-157792400D03*
X54254400Y-159792400D03*
X56254400Y-159792400D03*
X54254400Y-161792400D03*
X56254400Y-161792400D03*
X54254400Y-163792400D03*
X56254400Y-163792400D03*
X54254400Y-165792400D03*
X56254400Y-165792400D03*
X54254400Y-167792400D03*
X56254400Y-167792400D03*
X54254400Y-169792400D03*
X56254400Y-169792400D03*
X54254400Y-171792400D03*
X56254400Y-171792400D03*
X54254400Y-173792400D03*
X56254400Y-173792400D03*
X54254400Y-175792400D03*
X56254400Y-175792400D03*
X54254400Y-177792400D03*
X56254400Y-177792400D03*
X54254400Y-179792400D03*
X56254400Y-179792400D03*
X54254400Y-181792400D03*
X56254400Y-181792400D03*
X54254400Y-183792400D03*
X56254400Y-183792400D03*
D13*
X144907000Y-165100000D03*
D14*
X140207000Y-165100000D03*
X135507000Y-165100000D03*
D10*
X275886400Y-46385200D03*
D11*
X117602000Y-184531000D03*
D12*
X115602000Y-184531000D03*
X113602000Y-184531000D03*
D15*
X166544800Y-151332200D03*
D16*
X181784800Y-151332200D03*
D17*
X179244800Y-166249400D03*
D14*
X179244800Y-161549400D03*
X179244800Y-156849400D03*
D18*
X124220000Y-55571000D03*
X129220000Y-55571000D03*
X134220000Y-55571000D03*
X139220000Y-55571000D03*
X144220000Y-55571000D03*
X149220000Y-55571000D03*
X154220000Y-55571000D03*
X159220000Y-55571000D03*
X124220000Y-47371000D03*
X129220000Y-47371000D03*
X134220000Y-47371000D03*
X139220000Y-47371000D03*
X144220000Y-47371000D03*
X149220000Y-47371000D03*
X154220000Y-47371000D03*
X159220000Y-47371000D03*
D11*
X72517000Y-60452000D03*
D12*
X74517000Y-60452000D03*
X76517000Y-60452000D03*
D19*
X183163200Y-55113800D03*
X188163200Y-55113800D03*
X193163200Y-55113800D03*
X198163200Y-55113800D03*
X203163200Y-55113800D03*
X208163200Y-55113800D03*
X213163200Y-55113800D03*
X218163200Y-55113800D03*
X223163200Y-55113800D03*
X228163200Y-55113800D03*
X183163200Y-46913800D03*
X188163200Y-46913800D03*
X193163200Y-46913800D03*
X198163200Y-46913800D03*
X203163200Y-46913800D03*
X208163200Y-46913800D03*
X213163200Y-46913800D03*
X218163200Y-46913800D03*
X223163200Y-46913800D03*
X228163200Y-46913800D03*
D20*
X94314400Y-96988600D03*
X94314400Y-99528600D03*
X94314400Y-102068600D03*
D21*
X276124800Y-71822607D03*
X267924800Y-76822607D03*
X267924800Y-81822607D03*
X267924800Y-86822607D03*
X267924800Y-71822607D03*
X276124800Y-76822607D03*
X276124800Y-81822607D03*
X276124800Y-86822607D03*
D22*
X240665000Y-79177000D03*
D23*
X243205000Y-79177000D03*
X245745000Y-79177000D03*
D18*
X200427200Y-172703400D03*
X195427200Y-172703400D03*
X200427200Y-180903400D03*
X195427200Y-180903400D03*
X251371384Y-54883800D03*
X256371384Y-54883800D03*
X251371384Y-46683800D03*
X256371384Y-46683800D03*
D22*
X228854000Y-111562000D03*
D23*
X231394000Y-111562000D03*
X233934000Y-111562000D03*
D11*
X74835000Y-128524000D03*
D12*
X76835000Y-128524000D03*
X78835000Y-128524000D03*
D22*
X227330000Y-162743000D03*
D23*
X229870000Y-162743000D03*
X232410000Y-162743000D03*
D24*
X196645000Y-156687400D03*
D14*
X196645000Y-161387400D03*
X196645000Y-166087400D03*
D18*
X185318000Y-172703400D03*
X180318000Y-172703400D03*
X185318000Y-180903400D03*
X180318000Y-180903400D03*
D11*
X72549000Y-108712000D03*
D12*
X74549000Y-108712000D03*
X76549000Y-108712000D03*
D22*
X227203000Y-129088000D03*
D23*
X229743000Y-129088000D03*
X232283000Y-129088000D03*
D25*
X169084800Y-184654800D03*
X169084800Y-162154800D03*
D26*
X33959800Y-155223800D03*
D27*
X35229800Y-155223800D03*
X36499800Y-155223800D03*
D11*
X72676000Y-82804000D03*
D12*
X74676000Y-82804000D03*
X76676000Y-82804000D03*
D28*
X267948800Y-122298400D03*
X267948800Y-127298400D03*
X267948800Y-132298400D03*
X267948800Y-137298400D03*
X267948800Y-142298400D03*
X267948800Y-147298400D03*
X267948800Y-152298400D03*
X267948800Y-157298400D03*
X267948800Y-162298400D03*
X267948800Y-167298400D03*
X276148800Y-122298400D03*
X276148800Y-127298400D03*
X276148800Y-132298400D03*
X276148800Y-137298400D03*
X276148800Y-142298400D03*
X276148800Y-147298400D03*
X276148800Y-152298400D03*
X276148800Y-157298400D03*
X276148800Y-162298400D03*
X276148800Y-167298400D03*
D22*
X227457000Y-177983000D03*
D23*
X229997000Y-177983000D03*
X232537000Y-177983000D03*
D21*
X267263000Y-57340784D03*
X267263000Y-62340784D03*
X275463000Y-57340784D03*
X275463000Y-62340784D03*
X44520600Y-104142194D03*
X44520600Y-109142194D03*
X44520600Y-114142194D03*
X44520600Y-119142194D03*
X44520600Y-124142194D03*
X44520600Y-129142194D03*
X44520600Y-134142194D03*
X44520600Y-139142194D03*
X36320600Y-139142194D03*
X36320600Y-134142194D03*
X36320600Y-129142194D03*
X36320600Y-124142194D03*
X36320600Y-119142194D03*
X36320600Y-114142194D03*
X36320600Y-109142194D03*
X36320600Y-104142194D03*
D29*
X138598000Y-180870500D03*
D30*
X137598000Y-183570500D03*
X132598000Y-183570500D03*
D29*
X131598000Y-180870500D03*
D10*
X35886400Y-181385200D03*
D22*
X226949000Y-145471000D03*
D23*
X229489000Y-145471000D03*
X232029000Y-145471000D03*
D10*
X35886400Y-46385200D03*
D21*
X44293400Y-60144600D03*
X44293400Y-65144600D03*
X44293400Y-70144600D03*
X44293400Y-75144600D03*
X44293400Y-80144600D03*
X44293400Y-85144600D03*
X44293400Y-90144600D03*
X44293400Y-95144600D03*
X36093400Y-60144600D03*
X36093400Y-65144600D03*
X36093400Y-70144600D03*
X36093400Y-75144600D03*
X36093400Y-80144600D03*
X36093400Y-85144600D03*
X36093400Y-90144600D03*
X36093400Y-95144600D03*
%LPD*%
M02*
