M48
; DRILL file {KiCad 8.0.9} date 2025-05-25T13:17:04-0500
; FORMAT={-:-/ absolute / metric / decimal}
; #@! TF.CreationDate,2025-05-25T13:17:04-05:00
; #@! TF.GenerationSoftware,Kicad,Pcbnew,8.0.9
; #@! TF.FileFunction,Plated,1,4,PTH
FMAT,2
METRIC
; #@! TA.AperFunction,Plated,PTH,ViaDrill
T1C0.508
; #@! TA.AperFunction,Plated,PTH,ComponentDrill
T2C0.600
; #@! TA.AperFunction,Plated,PTH,ComponentDrill
T3C0.750
; #@! TA.AperFunction,Plated,PTH,ComponentDrill
T4C0.800
; #@! TA.AperFunction,Plated,PTH,ComponentDrill
T5C0.850
; #@! TA.AperFunction,Plated,PTH,ComponentDrill
T6C1.000
; #@! TA.AperFunction,Plated,PTH,ComponentDrill
T7C1.100
; #@! TA.AperFunction,Plated,PTH,ComponentDrill
T8C1.300
; #@! TA.AperFunction,Plated,PTH,ComponentDrill
T9C1.320
; #@! TA.AperFunction,Plated,PTH,ComponentDrill
T10C1.600
; #@! TA.AperFunction,Plated,PTH,ComponentDrill
T11C1.850
%
G90
G05
T1
X38.837Y-169.748
X40.589Y-119.38
X40.589Y-147.295
X40.589Y-182.905
X40.615Y-139.802
X40.64Y-170.18
X40.64Y-177.724
X40.691Y-154.94
X42.037Y-161.544
X42.977Y-48.235
X43.256Y-55.956
X44.861Y-178.608
X45.822Y-175.209
X47.752Y-171.069
X48.082Y-154.94
X48.235Y-139.7
X48.26Y-147.371
X48.26Y-173.99
X48.26Y-177.038
X48.311Y-162.484
X48.412Y-129.489
X49.784Y-173.863
X50.368Y-77.114
X50.571Y-101.575
X50.648Y-124.638
X50.825Y-48.336
X50.825Y-55.905
X50.851Y-63.449
X50.851Y-109.372
X50.978Y-184.277
X51.943Y-119.482
X52.324Y-172.466
X58.344Y-137.16
X58.395Y-129.489
X58.42Y-63.627
X58.42Y-101.702
X58.522Y-48.336
X58.522Y-55.778
X58.522Y-78.562
X58.522Y-109.271
X58.547Y-71.171
X58.649Y-86.462
X59.334Y-178.689
X59.673Y-171.594
X60.325Y-173.228
X60.325Y-176.403
X60.884Y-147.295
X60.985Y-162.458
X61.036Y-154.965
X62.306Y-182.118
X62.484Y-179.502
X63.754Y-175.133
X63.957Y-183.617
X64.897Y-173.228
X65.786Y-78.74
X66.015Y-48.311
X66.04Y-101.397
X66.167Y-55.905
X66.548Y-109.906
X67.107Y-116.535
X67.335Y-64.287
X67.539Y-91.237
X67.742Y-68.732
X68.478Y-162.484
X68.504Y-139.573
X68.529Y-147.269
X68.656Y-154.965
X69.609Y-180.784
X69.698Y-129.159
X69.723Y-134.772
X73.558Y-55.804
X73.66Y-48.26
X73.787Y-101.498
X76.175Y-154.991
X76.2Y-183.032
X76.251Y-138.43
X76.251Y-147.371
X77.343Y-110.998
X81.255Y-79.248
X81.28Y-55.88
X81.28Y-63.475
X81.331Y-70.358
X81.331Y-86.487
X81.509Y-48.362
X83.744Y-121.844
X83.795Y-129.515
X83.795Y-138.252
X83.795Y-175.336
X83.82Y-182.905
X83.896Y-147.345
X85.776Y-98.4
X85.877Y-110.185
X86.868Y-139.217
X88.138Y-90.805
X88.24Y-86.411
X88.494Y-105.689
X88.9Y-78.74
X88.951Y-63.449
X89.052Y-48.438
X89.052Y-55.88
X90.983Y-101.549
X91.313Y-111.481
X91.338Y-129.515
X91.44Y-182.855
X91.465Y-167.665
X91.516Y-175.285
X91.567Y-121.945
X96.444Y-78.74
X96.52Y-55.88
X96.52Y-71.247
X96.52Y-139.548
X96.545Y-63.551
X96.571Y-48.362
X99.009Y-175.26
X99.009Y-182.931
X99.06Y-167.691
X99.39Y-161.087
X101.448Y-129.718
X101.473Y-112.395
X101.498Y-121.971
X101.575Y-162.585
X101.727Y-69.977
X103.988Y-78.689
X104.115Y-63.424
X104.115Y-86.385
X104.191Y-55.905
X104.216Y-48.26
X105.029Y-68.199
X106.578Y-167.691
X106.655Y-162.585
X106.655Y-175.209
X106.68Y-182.905
X106.731Y-95.225
X109.093Y-112.395
X109.093Y-181.483
X109.195Y-121.895
X109.296Y-129.413
X111.811Y-48.438
X111.811Y-55.88
X111.842Y-148.952
X112.141Y-76.2
X112.547Y-64.084
X112.649Y-70.358
X112.776Y-79.121
X114.097Y-162.484
X114.275Y-121.92
X114.3Y-154.991
X114.376Y-129.438
X117.094Y-113.665
X117.602Y-87.884
X118.041Y-125.095
X118.77Y-135.966
X119.329Y-55.88
X119.456Y-48.362
X119.685Y-63.195
X119.761Y-120.447
X120.904Y-80.391
X121.082Y-71.374
X121.895Y-86.258
X124.008Y-118.01
X124.409Y-164.998
X124.409Y-175.235
X124.536Y-154.94
X125.832Y-63.754
X126.822Y-133.934
X127.356Y-79.375
X128.372Y-89.586
X129.413Y-127.483
X130.023Y-75.946
X130.459Y-130.817
X132.029Y-154.991
X132.029Y-162.662
X132.182Y-71.171
X132.182Y-175.285
X132.563Y-117.602
X134.569Y-63.424
X134.976Y-94.441
X136.959Y-117.803
X137.109Y-150.063
X137.135Y-130.632
X137.262Y-78.791
X139.09Y-135.966
X139.573Y-113.157
X139.649Y-175.285
X139.675Y-154.991
X139.776Y-86.512
X141.173Y-68.707
X142.215Y-63.5
X144.678Y-139.624
X147.269Y-162.687
X147.269Y-182.956
X147.295Y-175.235
X147.345Y-154.965
X147.955Y-76.454
X148.539Y-79.096
X149.352Y-85.42
X149.428Y-72.619
X150.165Y-134.094
X150.52Y-64.135
X150.978Y-112.522
X152.197Y-117.018
X152.4Y-139.471
X152.527Y-130.962
X154.102Y-152.171
X154.432Y-161.798
X154.661Y-64.287
X154.94Y-182.88
X154.965Y-170.231
X156.261Y-154.915
X156.413Y-172.237
X156.464Y-69.85
X157.353Y-82.169
X157.404Y-123.52
X157.505Y-86.385
X157.556Y-111.76
X157.582Y-101.6
X158.623Y-68.986
X159.868Y-175.387
X160.045Y-131.064
X160.045Y-139.751
X161.315Y-64.745
X162.219Y-149.484
X162.433Y-182.905
X163.424Y-135.534
X164.236Y-76.632
X164.338Y-116.561
X164.719Y-81.534
X164.821Y-65.354
X164.973Y-55.88
X165.024Y-86.411
X165.075Y-101.727
X165.1Y-48.184
X165.151Y-142.062
X166.116Y-72.873
X167.665Y-167.615
X167.665Y-175.209
X167.691Y-155.067
X169.647Y-114.224
X171.577Y-117.805
X172.618Y-48.26
X172.72Y-182.804
X172.745Y-63.602
X172.771Y-55.88
X172.822Y-101.879
X172.822Y-142.062
X172.999Y-81.28
X173.126Y-88.849
X173.66Y-114.554
X175.235Y-154.889
X175.235Y-160.299
X175.26Y-175.438
X176.53Y-73.558
X176.708Y-137.008
X176.867Y-115.875
X180.162Y-113.716
X180.213Y-142.011
X180.238Y-55.88
X180.238Y-81.28
X180.289Y-101.752
X180.34Y-132.08
X180.416Y-48.184
X180.416Y-73.508
X180.467Y-63.424
X180.518Y-89.027
X183.972Y-122.784
X186.696Y-100.336
X187.935Y-73.558
X187.96Y-132.131
X187.985Y-81.178
X188.189Y-88.824
X188.671Y-113.69
X189.789Y-121.996
X190.398Y-167.615
X190.525Y-152.425
X190.602Y-160.147
X190.754Y-182.855
X190.881Y-175.235
X193.015Y-63.627
X193.04Y-144.653
X193.142Y-124.435
X193.421Y-81.432
X194.589Y-90.195
X198.12Y-86.106
X199.314Y-132.004
X200.233Y-124.058
X200.66Y-63.475
X205.156Y-94.844
X205.638Y-167.691
X205.664Y-152.425
X205.689Y-182.88
X205.715Y-132.131
X205.74Y-144.729
X205.765Y-175.209
X205.842Y-110.338
X205.842Y-159.995
X205.918Y-136.931
X208.356Y-63.525
X209.55Y-95.58
X209.804Y-70.231
X213.309Y-124.358
X213.309Y-137.236
X213.309Y-182.982
X213.385Y-132.156
X213.385Y-175.336
X213.411Y-144.602
X213.411Y-152.4
X213.462Y-167.615
X214.96Y-86.03
X215.646Y-83.439
X215.773Y-89.764
X215.9Y-63.602
X215.925Y-73.635
X220.904Y-152.527
X220.98Y-183.109
X221.005Y-116.789
X221.005Y-137.135
X221.391Y-102.9
X223.139Y-84.201
X223.393Y-139.065
X223.444Y-81.178
X223.52Y-153.035
X223.52Y-154.813
X223.545Y-88.875
X223.596Y-73.66
X223.622Y-63.576
X223.647Y-137.16
X224.028Y-121.158
X224.206Y-123.165
X224.663Y-139.065
X224.765Y-154.813
X224.815Y-153.035
X224.917Y-170.688
X225.044Y-169.164
X225.374Y-137.16
X225.654Y-122.555
X225.908Y-104.851
X226.238Y-170.79
X226.492Y-121.082
X226.568Y-169.164
X227.025Y-105.867
X227.533Y-103.734
X228.498Y-104.8
X230.988Y-63.652
X231.089Y-182.855
X231.165Y-167.665
X231.216Y-81.305
X231.267Y-88.722
X231.267Y-173.736
X231.419Y-73.635
X232.562Y-152.375
X238.252Y-68.072
X238.379Y-69.342
X238.506Y-150.114
X238.582Y-73.635
X238.658Y-81.204
X238.836Y-182.905
X239.092Y-90.056
X240.03Y-70.231
X240.106Y-68.529
X240.106Y-144.78
X240.208Y-94.361
X241.249Y-116.713
X241.402Y-167.589
X241.503Y-94.005
X241.529Y-53.721
X246.101Y-74.041
X246.253Y-173.355
X246.304Y-132.156
X246.355Y-182.931
X246.38Y-140.57
X246.38Y-63.5
X246.38Y-144.755
X246.38Y-155.702
X246.38Y-156.921
X246.431Y-48.082
X246.431Y-152.298
X246.482Y-90.043
X246.961Y-141.151
X247.498Y-173.355
X248.31Y-133.985
X248.717Y-166.065
X249.276Y-103.251
X251.663Y-120.625
X251.714Y-158.496
X252.603Y-145.542
X252.73Y-158.242
X253.949Y-63.602
X253.975Y-90.195
X254.025Y-174.93
X254.076Y-182.804
X254.102Y-73.863
X254.432Y-103.683
X254.508Y-139.065
X256.311Y-163.17
X256.413Y-161.671
X257.327Y-149.428
X260.274Y-138.811
X260.401Y-134.976
X260.731Y-137.795
X260.985Y-119.761
X261.62Y-182.88
X261.645Y-73.711
X261.671Y-63.551
X261.696Y-175.209
X262.687Y-168.783
X264.033Y-144.831
X264.312Y-101.575
X266.649Y-114.224
X269.215Y-182.956
X269.265Y-175.209
X271.475Y-144.755
X271.831Y-93.904
X271.856Y-101.676
X272.059Y-152.552
X274.447Y-114.402
X277.012Y-175.387
X279.375Y-101.6
X279.476Y-93.98
T3
X33.96Y-155.224
X35.23Y-155.224
X36.5Y-155.224
T4
X54.236Y-145.765
X54.236Y-147.765
X54.236Y-149.765
X54.236Y-151.765
X54.236Y-153.765
X54.236Y-155.765
X54.236Y-157.765
X54.236Y-159.765
X54.236Y-161.765
X54.236Y-163.765
X54.236Y-165.765
X54.236Y-167.765
X54.236Y-169.765
X54.236Y-171.765
X54.236Y-173.765
X54.236Y-175.765
X54.236Y-177.765
X54.236Y-179.765
X54.236Y-181.765
X54.236Y-183.765
X56.236Y-145.765
X56.236Y-147.765
X56.236Y-149.765
X56.236Y-151.765
X56.236Y-153.765
X56.236Y-155.765
X56.236Y-157.765
X56.236Y-159.765
X56.236Y-161.765
X56.236Y-163.765
X56.236Y-165.765
X56.236Y-167.765
X56.236Y-169.765
X56.236Y-171.765
X56.236Y-173.765
X56.236Y-175.765
X56.236Y-177.765
X56.236Y-179.765
X56.236Y-181.765
X56.236Y-183.765
X94.314Y-96.989
X94.314Y-99.529
X94.314Y-102.069
T5
X132.349Y-181.163
X137.349Y-181.163
T6
X72.517Y-60.452
X72.549Y-108.712
X72.676Y-82.804
X75.057Y-60.452
X75.089Y-108.712
X75.216Y-82.804
X75.286Y-128.524
X77.597Y-60.452
X77.629Y-108.712
X77.756Y-82.804
X77.826Y-128.524
X80.366Y-128.524
X112.522Y-184.531
X115.062Y-184.531
X117.602Y-184.531
T7
X226.949Y-145.471
X227.203Y-129.088
X227.33Y-162.743
X227.457Y-177.983
X228.854Y-111.562
X229.489Y-145.471
X229.743Y-129.088
X229.87Y-162.743
X229.997Y-177.983
X231.394Y-111.562
X232.029Y-145.471
X232.283Y-129.088
X232.41Y-162.743
X232.537Y-177.983
X233.934Y-111.562
X240.665Y-79.177
X243.205Y-79.177
X245.745Y-79.177
T8
X36.093Y-60.145
X36.093Y-65.145
X36.093Y-70.145
X36.093Y-75.145
X36.093Y-80.145
X36.093Y-85.145
X36.093Y-90.145
X36.093Y-95.145
X36.321Y-104.142
X36.321Y-109.142
X36.321Y-114.142
X36.321Y-119.142
X36.321Y-124.142
X36.321Y-129.142
X36.321Y-134.142
X36.321Y-139.142
X44.293Y-60.145
X44.293Y-65.145
X44.293Y-70.145
X44.293Y-75.145
X44.293Y-80.145
X44.293Y-85.145
X44.293Y-90.145
X44.293Y-95.145
X44.521Y-104.142
X44.521Y-109.142
X44.521Y-114.142
X44.521Y-119.142
X44.521Y-124.142
X44.521Y-129.142
X44.521Y-134.142
X44.521Y-139.142
X124.22Y-47.371
X124.22Y-55.571
X129.22Y-47.371
X129.22Y-55.571
X134.22Y-47.371
X134.22Y-55.571
X139.22Y-47.371
X139.22Y-55.571
X144.22Y-47.371
X144.22Y-55.571
X149.22Y-47.371
X149.22Y-55.571
X154.22Y-47.371
X154.22Y-55.571
X159.22Y-47.371
X159.22Y-55.571
X180.318Y-172.703
X180.318Y-180.903
X183.163Y-46.914
X183.163Y-55.114
X185.318Y-172.703
X185.318Y-180.903
X188.163Y-46.914
X188.163Y-55.114
X193.163Y-46.914
X193.163Y-55.114
X195.427Y-172.703
X195.427Y-180.903
X198.163Y-46.914
X198.163Y-55.114
X200.427Y-172.703
X200.427Y-180.903
X203.163Y-46.914
X203.163Y-55.114
X208.163Y-46.914
X208.163Y-55.114
X213.163Y-46.914
X213.163Y-55.114
X218.163Y-46.914
X218.163Y-55.114
X223.163Y-46.914
X223.163Y-55.114
X228.163Y-46.914
X228.163Y-55.114
X251.371Y-46.684
X251.371Y-54.884
X256.371Y-46.684
X256.371Y-54.884
X267.263Y-57.341
X267.263Y-62.341
X267.925Y-71.823
X267.925Y-76.823
X267.925Y-81.823
X267.925Y-86.823
X267.949Y-122.298
X267.949Y-127.298
X267.949Y-132.298
X267.949Y-137.298
X267.949Y-142.298
X267.949Y-147.298
X267.949Y-152.298
X267.949Y-157.298
X267.949Y-162.298
X267.949Y-167.298
X275.463Y-57.341
X275.463Y-62.341
X276.125Y-71.823
X276.125Y-76.823
X276.125Y-81.823
X276.125Y-86.823
X276.149Y-122.298
X276.149Y-127.298
X276.149Y-132.298
X276.149Y-137.298
X276.149Y-142.298
X276.149Y-147.298
X276.149Y-152.298
X276.149Y-157.298
X276.149Y-162.298
X276.149Y-167.298
T9
X169.085Y-162.155
X169.085Y-184.655
T10
X166.545Y-151.332
X181.785Y-151.332
T11
X135.507Y-165.1
X140.207Y-165.1
X144.907Y-165.1
X179.245Y-156.849
X179.245Y-161.549
X179.245Y-166.249
X196.645Y-156.687
X196.645Y-161.387
X196.645Y-166.087
T2
X131.349Y-184.213G85X131.349Y-183.513
G05
X138.349Y-183.513G85X138.349Y-184.213
G05
M30
