%TF.GenerationSoftware,KiCad,Pcbnew,8.0.9*%
%TF.CreationDate,2025-05-25T13:17:19-05:00*%
%TF.ProjectId,karca_v2,6b617263-615f-4763-922e-6b696361645f,rev?*%
%TF.SameCoordinates,Original*%
%TF.FileFunction,Drillmap*%
%TF.FilePolarity,Positive*%
%FSLAX45Y45*%
G04 Gerber Fmt 4.5, Leading zero omitted, Abs format (unit mm)*
G04 Created by KiCad (PCBNEW 8.0.9) date 2025-05-25 13:17:19*
%MOMM*%
%LPD*%
G01*
G04 APERTURE LIST*
%ADD10C,0.100000*%
%ADD11C,0.200000*%
%ADD12C,0.320000*%
G04 APERTURE END LIST*
D10*
X3588640Y-18638520D02*
G75*
G02*
X3088640Y-18138520I0J500000D01*
G01*
X3088640Y-18138520D02*
X3088640Y-4638520D01*
X28088640Y-18138520D02*
G75*
G02*
X27588640Y-18638520I-500000J0D01*
G01*
X28088640Y-4638520D02*
X28088640Y-18138520D01*
X3588640Y-4138520D02*
X27588640Y-4138520D01*
X27588640Y-4138520D02*
G75*
G02*
X28088640Y-4638520I0J-500000D01*
G01*
X27588640Y-18638520D02*
X3588640Y-18638520D01*
X3088640Y-4638520D02*
G75*
G02*
X3588640Y-4138520I500000J0D01*
G01*
D11*
D12*
X3428640Y-4478520D02*
X3748640Y-4798520D01*
X3748640Y-4478520D02*
X3428640Y-4798520D01*
X3428640Y-17978520D02*
X3748640Y-18298520D01*
X3748640Y-17978520D02*
X3428640Y-18298520D01*
X27428640Y-4478520D02*
X27748640Y-4798520D01*
X27748640Y-4478520D02*
X27428640Y-4798520D01*
X27428640Y-17978520D02*
X27748640Y-18298520D01*
X27748640Y-17978520D02*
X27428640Y-18298520D01*
D11*
X3344417Y-18955004D02*
X3344417Y-18755004D01*
X3344417Y-18755004D02*
X3392036Y-18755004D01*
X3392036Y-18755004D02*
X3420607Y-18764528D01*
X3420607Y-18764528D02*
X3439655Y-18783575D01*
X3439655Y-18783575D02*
X3449179Y-18802623D01*
X3449179Y-18802623D02*
X3458702Y-18840718D01*
X3458702Y-18840718D02*
X3458702Y-18869290D01*
X3458702Y-18869290D02*
X3449179Y-18907385D01*
X3449179Y-18907385D02*
X3439655Y-18926432D01*
X3439655Y-18926432D02*
X3420607Y-18945480D01*
X3420607Y-18945480D02*
X3392036Y-18955004D01*
X3392036Y-18955004D02*
X3344417Y-18955004D01*
X3544417Y-18955004D02*
X3544417Y-18821670D01*
X3544417Y-18859766D02*
X3553941Y-18840718D01*
X3553941Y-18840718D02*
X3563464Y-18831194D01*
X3563464Y-18831194D02*
X3582512Y-18821670D01*
X3582512Y-18821670D02*
X3601560Y-18821670D01*
X3668226Y-18955004D02*
X3668226Y-18821670D01*
X3668226Y-18755004D02*
X3658702Y-18764528D01*
X3658702Y-18764528D02*
X3668226Y-18774051D01*
X3668226Y-18774051D02*
X3677750Y-18764528D01*
X3677750Y-18764528D02*
X3668226Y-18755004D01*
X3668226Y-18755004D02*
X3668226Y-18774051D01*
X3792036Y-18955004D02*
X3772988Y-18945480D01*
X3772988Y-18945480D02*
X3763464Y-18926432D01*
X3763464Y-18926432D02*
X3763464Y-18755004D01*
X3896798Y-18955004D02*
X3877750Y-18945480D01*
X3877750Y-18945480D02*
X3868226Y-18926432D01*
X3868226Y-18926432D02*
X3868226Y-18755004D01*
X4125369Y-18955004D02*
X4125369Y-18755004D01*
X4125369Y-18755004D02*
X4192036Y-18897861D01*
X4192036Y-18897861D02*
X4258703Y-18755004D01*
X4258703Y-18755004D02*
X4258703Y-18955004D01*
X4439655Y-18955004D02*
X4439655Y-18850242D01*
X4439655Y-18850242D02*
X4430131Y-18831194D01*
X4430131Y-18831194D02*
X4411084Y-18821670D01*
X4411084Y-18821670D02*
X4372988Y-18821670D01*
X4372988Y-18821670D02*
X4353941Y-18831194D01*
X4439655Y-18945480D02*
X4420607Y-18955004D01*
X4420607Y-18955004D02*
X4372988Y-18955004D01*
X4372988Y-18955004D02*
X4353941Y-18945480D01*
X4353941Y-18945480D02*
X4344417Y-18926432D01*
X4344417Y-18926432D02*
X4344417Y-18907385D01*
X4344417Y-18907385D02*
X4353941Y-18888337D01*
X4353941Y-18888337D02*
X4372988Y-18878813D01*
X4372988Y-18878813D02*
X4420607Y-18878813D01*
X4420607Y-18878813D02*
X4439655Y-18869290D01*
X4534893Y-18821670D02*
X4534893Y-19021670D01*
X4534893Y-18831194D02*
X4553941Y-18821670D01*
X4553941Y-18821670D02*
X4592036Y-18821670D01*
X4592036Y-18821670D02*
X4611084Y-18831194D01*
X4611084Y-18831194D02*
X4620607Y-18840718D01*
X4620607Y-18840718D02*
X4630131Y-18859766D01*
X4630131Y-18859766D02*
X4630131Y-18916909D01*
X4630131Y-18916909D02*
X4620607Y-18935956D01*
X4620607Y-18935956D02*
X4611084Y-18945480D01*
X4611084Y-18945480D02*
X4592036Y-18955004D01*
X4592036Y-18955004D02*
X4553941Y-18955004D01*
X4553941Y-18955004D02*
X4534893Y-18945480D01*
X4715845Y-18935956D02*
X4725369Y-18945480D01*
X4725369Y-18945480D02*
X4715845Y-18955004D01*
X4715845Y-18955004D02*
X4706322Y-18945480D01*
X4706322Y-18945480D02*
X4715845Y-18935956D01*
X4715845Y-18935956D02*
X4715845Y-18955004D01*
X4715845Y-18831194D02*
X4725369Y-18840718D01*
X4725369Y-18840718D02*
X4715845Y-18850242D01*
X4715845Y-18850242D02*
X4706322Y-18840718D01*
X4706322Y-18840718D02*
X4715845Y-18831194D01*
X4715845Y-18831194D02*
X4715845Y-18850242D01*
X2883640Y-19183520D02*
X3083640Y-19383520D01*
X3083640Y-19183520D02*
X2883640Y-19383520D01*
X3325369Y-19175004D02*
X3449179Y-19175004D01*
X3449179Y-19175004D02*
X3382512Y-19251194D01*
X3382512Y-19251194D02*
X3411083Y-19251194D01*
X3411083Y-19251194D02*
X3430131Y-19260718D01*
X3430131Y-19260718D02*
X3439655Y-19270242D01*
X3439655Y-19270242D02*
X3449179Y-19289290D01*
X3449179Y-19289290D02*
X3449179Y-19336909D01*
X3449179Y-19336909D02*
X3439655Y-19355956D01*
X3439655Y-19355956D02*
X3430131Y-19365480D01*
X3430131Y-19365480D02*
X3411083Y-19375004D01*
X3411083Y-19375004D02*
X3353941Y-19375004D01*
X3353941Y-19375004D02*
X3334893Y-19365480D01*
X3334893Y-19365480D02*
X3325369Y-19355956D01*
X3534893Y-19355956D02*
X3544417Y-19365480D01*
X3544417Y-19365480D02*
X3534893Y-19375004D01*
X3534893Y-19375004D02*
X3525369Y-19365480D01*
X3525369Y-19365480D02*
X3534893Y-19355956D01*
X3534893Y-19355956D02*
X3534893Y-19375004D01*
X3620607Y-19194051D02*
X3630131Y-19184528D01*
X3630131Y-19184528D02*
X3649179Y-19175004D01*
X3649179Y-19175004D02*
X3696798Y-19175004D01*
X3696798Y-19175004D02*
X3715845Y-19184528D01*
X3715845Y-19184528D02*
X3725369Y-19194051D01*
X3725369Y-19194051D02*
X3734893Y-19213099D01*
X3734893Y-19213099D02*
X3734893Y-19232147D01*
X3734893Y-19232147D02*
X3725369Y-19260718D01*
X3725369Y-19260718D02*
X3611083Y-19375004D01*
X3611083Y-19375004D02*
X3734893Y-19375004D01*
X3858702Y-19175004D02*
X3877750Y-19175004D01*
X3877750Y-19175004D02*
X3896798Y-19184528D01*
X3896798Y-19184528D02*
X3906322Y-19194051D01*
X3906322Y-19194051D02*
X3915845Y-19213099D01*
X3915845Y-19213099D02*
X3925369Y-19251194D01*
X3925369Y-19251194D02*
X3925369Y-19298813D01*
X3925369Y-19298813D02*
X3915845Y-19336909D01*
X3915845Y-19336909D02*
X3906322Y-19355956D01*
X3906322Y-19355956D02*
X3896798Y-19365480D01*
X3896798Y-19365480D02*
X3877750Y-19375004D01*
X3877750Y-19375004D02*
X3858702Y-19375004D01*
X3858702Y-19375004D02*
X3839655Y-19365480D01*
X3839655Y-19365480D02*
X3830131Y-19355956D01*
X3830131Y-19355956D02*
X3820607Y-19336909D01*
X3820607Y-19336909D02*
X3811083Y-19298813D01*
X3811083Y-19298813D02*
X3811083Y-19251194D01*
X3811083Y-19251194D02*
X3820607Y-19213099D01*
X3820607Y-19213099D02*
X3830131Y-19194051D01*
X3830131Y-19194051D02*
X3839655Y-19184528D01*
X3839655Y-19184528D02*
X3858702Y-19175004D01*
X4049179Y-19175004D02*
X4068226Y-19175004D01*
X4068226Y-19175004D02*
X4087274Y-19184528D01*
X4087274Y-19184528D02*
X4096798Y-19194051D01*
X4096798Y-19194051D02*
X4106322Y-19213099D01*
X4106322Y-19213099D02*
X4115845Y-19251194D01*
X4115845Y-19251194D02*
X4115845Y-19298813D01*
X4115845Y-19298813D02*
X4106322Y-19336909D01*
X4106322Y-19336909D02*
X4096798Y-19355956D01*
X4096798Y-19355956D02*
X4087274Y-19365480D01*
X4087274Y-19365480D02*
X4068226Y-19375004D01*
X4068226Y-19375004D02*
X4049179Y-19375004D01*
X4049179Y-19375004D02*
X4030131Y-19365480D01*
X4030131Y-19365480D02*
X4020607Y-19355956D01*
X4020607Y-19355956D02*
X4011083Y-19336909D01*
X4011083Y-19336909D02*
X4001560Y-19298813D01*
X4001560Y-19298813D02*
X4001560Y-19251194D01*
X4001560Y-19251194D02*
X4011083Y-19213099D01*
X4011083Y-19213099D02*
X4020607Y-19194051D01*
X4020607Y-19194051D02*
X4030131Y-19184528D01*
X4030131Y-19184528D02*
X4049179Y-19175004D01*
X4201560Y-19375004D02*
X4201560Y-19241670D01*
X4201560Y-19260718D02*
X4211084Y-19251194D01*
X4211084Y-19251194D02*
X4230131Y-19241670D01*
X4230131Y-19241670D02*
X4258703Y-19241670D01*
X4258703Y-19241670D02*
X4277750Y-19251194D01*
X4277750Y-19251194D02*
X4287274Y-19270242D01*
X4287274Y-19270242D02*
X4287274Y-19375004D01*
X4287274Y-19270242D02*
X4296798Y-19251194D01*
X4296798Y-19251194D02*
X4315845Y-19241670D01*
X4315845Y-19241670D02*
X4344417Y-19241670D01*
X4344417Y-19241670D02*
X4363465Y-19251194D01*
X4363465Y-19251194D02*
X4372988Y-19270242D01*
X4372988Y-19270242D02*
X4372988Y-19375004D01*
X4468226Y-19375004D02*
X4468226Y-19241670D01*
X4468226Y-19260718D02*
X4477750Y-19251194D01*
X4477750Y-19251194D02*
X4496798Y-19241670D01*
X4496798Y-19241670D02*
X4525369Y-19241670D01*
X4525369Y-19241670D02*
X4544417Y-19251194D01*
X4544417Y-19251194D02*
X4553941Y-19270242D01*
X4553941Y-19270242D02*
X4553941Y-19375004D01*
X4553941Y-19270242D02*
X4563465Y-19251194D01*
X4563465Y-19251194D02*
X4582512Y-19241670D01*
X4582512Y-19241670D02*
X4611084Y-19241670D01*
X4611084Y-19241670D02*
X4630131Y-19251194D01*
X4630131Y-19251194D02*
X4639655Y-19270242D01*
X4639655Y-19270242D02*
X4639655Y-19375004D01*
X5030131Y-19165480D02*
X4858703Y-19422623D01*
X5287274Y-19175004D02*
X5306322Y-19175004D01*
X5306322Y-19175004D02*
X5325369Y-19184528D01*
X5325369Y-19184528D02*
X5334893Y-19194051D01*
X5334893Y-19194051D02*
X5344417Y-19213099D01*
X5344417Y-19213099D02*
X5353941Y-19251194D01*
X5353941Y-19251194D02*
X5353941Y-19298813D01*
X5353941Y-19298813D02*
X5344417Y-19336909D01*
X5344417Y-19336909D02*
X5334893Y-19355956D01*
X5334893Y-19355956D02*
X5325369Y-19365480D01*
X5325369Y-19365480D02*
X5306322Y-19375004D01*
X5306322Y-19375004D02*
X5287274Y-19375004D01*
X5287274Y-19375004D02*
X5268227Y-19365480D01*
X5268227Y-19365480D02*
X5258703Y-19355956D01*
X5258703Y-19355956D02*
X5249179Y-19336909D01*
X5249179Y-19336909D02*
X5239655Y-19298813D01*
X5239655Y-19298813D02*
X5239655Y-19251194D01*
X5239655Y-19251194D02*
X5249179Y-19213099D01*
X5249179Y-19213099D02*
X5258703Y-19194051D01*
X5258703Y-19194051D02*
X5268227Y-19184528D01*
X5268227Y-19184528D02*
X5287274Y-19175004D01*
X5439655Y-19355956D02*
X5449179Y-19365480D01*
X5449179Y-19365480D02*
X5439655Y-19375004D01*
X5439655Y-19375004D02*
X5430131Y-19365480D01*
X5430131Y-19365480D02*
X5439655Y-19355956D01*
X5439655Y-19355956D02*
X5439655Y-19375004D01*
X5639655Y-19375004D02*
X5525369Y-19375004D01*
X5582512Y-19375004D02*
X5582512Y-19175004D01*
X5582512Y-19175004D02*
X5563465Y-19203575D01*
X5563465Y-19203575D02*
X5544417Y-19222623D01*
X5544417Y-19222623D02*
X5525369Y-19232147D01*
X5715846Y-19194051D02*
X5725369Y-19184528D01*
X5725369Y-19184528D02*
X5744417Y-19175004D01*
X5744417Y-19175004D02*
X5792036Y-19175004D01*
X5792036Y-19175004D02*
X5811084Y-19184528D01*
X5811084Y-19184528D02*
X5820607Y-19194051D01*
X5820607Y-19194051D02*
X5830131Y-19213099D01*
X5830131Y-19213099D02*
X5830131Y-19232147D01*
X5830131Y-19232147D02*
X5820607Y-19260718D01*
X5820607Y-19260718D02*
X5706322Y-19375004D01*
X5706322Y-19375004D02*
X5830131Y-19375004D01*
X6001560Y-19175004D02*
X5963465Y-19175004D01*
X5963465Y-19175004D02*
X5944417Y-19184528D01*
X5944417Y-19184528D02*
X5934893Y-19194051D01*
X5934893Y-19194051D02*
X5915846Y-19222623D01*
X5915846Y-19222623D02*
X5906322Y-19260718D01*
X5906322Y-19260718D02*
X5906322Y-19336909D01*
X5906322Y-19336909D02*
X5915846Y-19355956D01*
X5915846Y-19355956D02*
X5925369Y-19365480D01*
X5925369Y-19365480D02*
X5944417Y-19375004D01*
X5944417Y-19375004D02*
X5982512Y-19375004D01*
X5982512Y-19375004D02*
X6001560Y-19365480D01*
X6001560Y-19365480D02*
X6011084Y-19355956D01*
X6011084Y-19355956D02*
X6020607Y-19336909D01*
X6020607Y-19336909D02*
X6020607Y-19289290D01*
X6020607Y-19289290D02*
X6011084Y-19270242D01*
X6011084Y-19270242D02*
X6001560Y-19260718D01*
X6001560Y-19260718D02*
X5982512Y-19251194D01*
X5982512Y-19251194D02*
X5944417Y-19251194D01*
X5944417Y-19251194D02*
X5925369Y-19260718D01*
X5925369Y-19260718D02*
X5915846Y-19270242D01*
X5915846Y-19270242D02*
X5906322Y-19289290D01*
X6144417Y-19175004D02*
X6163465Y-19175004D01*
X6163465Y-19175004D02*
X6182512Y-19184528D01*
X6182512Y-19184528D02*
X6192036Y-19194051D01*
X6192036Y-19194051D02*
X6201560Y-19213099D01*
X6201560Y-19213099D02*
X6211084Y-19251194D01*
X6211084Y-19251194D02*
X6211084Y-19298813D01*
X6211084Y-19298813D02*
X6201560Y-19336909D01*
X6201560Y-19336909D02*
X6192036Y-19355956D01*
X6192036Y-19355956D02*
X6182512Y-19365480D01*
X6182512Y-19365480D02*
X6163465Y-19375004D01*
X6163465Y-19375004D02*
X6144417Y-19375004D01*
X6144417Y-19375004D02*
X6125369Y-19365480D01*
X6125369Y-19365480D02*
X6115846Y-19355956D01*
X6115846Y-19355956D02*
X6106322Y-19336909D01*
X6106322Y-19336909D02*
X6096798Y-19298813D01*
X6096798Y-19298813D02*
X6096798Y-19251194D01*
X6096798Y-19251194D02*
X6106322Y-19213099D01*
X6106322Y-19213099D02*
X6115846Y-19194051D01*
X6115846Y-19194051D02*
X6125369Y-19184528D01*
X6125369Y-19184528D02*
X6144417Y-19175004D01*
X6287274Y-19175004D02*
X6287274Y-19213099D01*
X6363465Y-19175004D02*
X6363465Y-19213099D01*
X6658703Y-19451194D02*
X6649179Y-19441670D01*
X6649179Y-19441670D02*
X6630131Y-19413099D01*
X6630131Y-19413099D02*
X6620608Y-19394051D01*
X6620608Y-19394051D02*
X6611084Y-19365480D01*
X6611084Y-19365480D02*
X6601560Y-19317861D01*
X6601560Y-19317861D02*
X6601560Y-19279766D01*
X6601560Y-19279766D02*
X6611084Y-19232147D01*
X6611084Y-19232147D02*
X6620608Y-19203575D01*
X6620608Y-19203575D02*
X6630131Y-19184528D01*
X6630131Y-19184528D02*
X6649179Y-19155956D01*
X6649179Y-19155956D02*
X6658703Y-19146432D01*
X6820608Y-19241670D02*
X6820608Y-19375004D01*
X6772988Y-19165480D02*
X6725369Y-19308337D01*
X6725369Y-19308337D02*
X6849179Y-19308337D01*
X7077750Y-19375004D02*
X7077750Y-19175004D01*
X7163465Y-19375004D02*
X7163465Y-19270242D01*
X7163465Y-19270242D02*
X7153941Y-19251194D01*
X7153941Y-19251194D02*
X7134893Y-19241670D01*
X7134893Y-19241670D02*
X7106322Y-19241670D01*
X7106322Y-19241670D02*
X7087274Y-19251194D01*
X7087274Y-19251194D02*
X7077750Y-19260718D01*
X7287274Y-19375004D02*
X7268227Y-19365480D01*
X7268227Y-19365480D02*
X7258703Y-19355956D01*
X7258703Y-19355956D02*
X7249179Y-19336909D01*
X7249179Y-19336909D02*
X7249179Y-19279766D01*
X7249179Y-19279766D02*
X7258703Y-19260718D01*
X7258703Y-19260718D02*
X7268227Y-19251194D01*
X7268227Y-19251194D02*
X7287274Y-19241670D01*
X7287274Y-19241670D02*
X7315846Y-19241670D01*
X7315846Y-19241670D02*
X7334893Y-19251194D01*
X7334893Y-19251194D02*
X7344417Y-19260718D01*
X7344417Y-19260718D02*
X7353941Y-19279766D01*
X7353941Y-19279766D02*
X7353941Y-19336909D01*
X7353941Y-19336909D02*
X7344417Y-19355956D01*
X7344417Y-19355956D02*
X7334893Y-19365480D01*
X7334893Y-19365480D02*
X7315846Y-19375004D01*
X7315846Y-19375004D02*
X7287274Y-19375004D01*
X7468227Y-19375004D02*
X7449179Y-19365480D01*
X7449179Y-19365480D02*
X7439655Y-19346432D01*
X7439655Y-19346432D02*
X7439655Y-19175004D01*
X7620608Y-19365480D02*
X7601560Y-19375004D01*
X7601560Y-19375004D02*
X7563465Y-19375004D01*
X7563465Y-19375004D02*
X7544417Y-19365480D01*
X7544417Y-19365480D02*
X7534893Y-19346432D01*
X7534893Y-19346432D02*
X7534893Y-19270242D01*
X7534893Y-19270242D02*
X7544417Y-19251194D01*
X7544417Y-19251194D02*
X7563465Y-19241670D01*
X7563465Y-19241670D02*
X7601560Y-19241670D01*
X7601560Y-19241670D02*
X7620608Y-19251194D01*
X7620608Y-19251194D02*
X7630131Y-19270242D01*
X7630131Y-19270242D02*
X7630131Y-19289290D01*
X7630131Y-19289290D02*
X7534893Y-19308337D01*
X7706322Y-19365480D02*
X7725370Y-19375004D01*
X7725370Y-19375004D02*
X7763465Y-19375004D01*
X7763465Y-19375004D02*
X7782512Y-19365480D01*
X7782512Y-19365480D02*
X7792036Y-19346432D01*
X7792036Y-19346432D02*
X7792036Y-19336909D01*
X7792036Y-19336909D02*
X7782512Y-19317861D01*
X7782512Y-19317861D02*
X7763465Y-19308337D01*
X7763465Y-19308337D02*
X7734893Y-19308337D01*
X7734893Y-19308337D02*
X7715846Y-19298813D01*
X7715846Y-19298813D02*
X7706322Y-19279766D01*
X7706322Y-19279766D02*
X7706322Y-19270242D01*
X7706322Y-19270242D02*
X7715846Y-19251194D01*
X7715846Y-19251194D02*
X7734893Y-19241670D01*
X7734893Y-19241670D02*
X7763465Y-19241670D01*
X7763465Y-19241670D02*
X7782512Y-19251194D01*
X7858703Y-19451194D02*
X7868227Y-19441670D01*
X7868227Y-19441670D02*
X7887274Y-19413099D01*
X7887274Y-19413099D02*
X7896798Y-19394051D01*
X7896798Y-19394051D02*
X7906322Y-19365480D01*
X7906322Y-19365480D02*
X7915846Y-19317861D01*
X7915846Y-19317861D02*
X7915846Y-19279766D01*
X7915846Y-19279766D02*
X7906322Y-19232147D01*
X7906322Y-19232147D02*
X7896798Y-19203575D01*
X7896798Y-19203575D02*
X7887274Y-19184528D01*
X7887274Y-19184528D02*
X7868227Y-19155956D01*
X7868227Y-19155956D02*
X7858703Y-19146432D01*
X8220608Y-19451194D02*
X8211084Y-19441670D01*
X8211084Y-19441670D02*
X8192036Y-19413099D01*
X8192036Y-19413099D02*
X8182512Y-19394051D01*
X8182512Y-19394051D02*
X8172989Y-19365480D01*
X8172989Y-19365480D02*
X8163465Y-19317861D01*
X8163465Y-19317861D02*
X8163465Y-19279766D01*
X8163465Y-19279766D02*
X8172989Y-19232147D01*
X8172989Y-19232147D02*
X8182512Y-19203575D01*
X8182512Y-19203575D02*
X8192036Y-19184528D01*
X8192036Y-19184528D02*
X8211084Y-19155956D01*
X8211084Y-19155956D02*
X8220608Y-19146432D01*
X8296798Y-19241670D02*
X8296798Y-19375004D01*
X8296798Y-19260718D02*
X8306322Y-19251194D01*
X8306322Y-19251194D02*
X8325370Y-19241670D01*
X8325370Y-19241670D02*
X8353941Y-19241670D01*
X8353941Y-19241670D02*
X8372989Y-19251194D01*
X8372989Y-19251194D02*
X8382512Y-19270242D01*
X8382512Y-19270242D02*
X8382512Y-19375004D01*
X8506322Y-19375004D02*
X8487274Y-19365480D01*
X8487274Y-19365480D02*
X8477751Y-19355956D01*
X8477751Y-19355956D02*
X8468227Y-19336909D01*
X8468227Y-19336909D02*
X8468227Y-19279766D01*
X8468227Y-19279766D02*
X8477751Y-19260718D01*
X8477751Y-19260718D02*
X8487274Y-19251194D01*
X8487274Y-19251194D02*
X8506322Y-19241670D01*
X8506322Y-19241670D02*
X8534894Y-19241670D01*
X8534894Y-19241670D02*
X8553941Y-19251194D01*
X8553941Y-19251194D02*
X8563465Y-19260718D01*
X8563465Y-19260718D02*
X8572989Y-19279766D01*
X8572989Y-19279766D02*
X8572989Y-19336909D01*
X8572989Y-19336909D02*
X8563465Y-19355956D01*
X8563465Y-19355956D02*
X8553941Y-19365480D01*
X8553941Y-19365480D02*
X8534894Y-19375004D01*
X8534894Y-19375004D02*
X8506322Y-19375004D01*
X8630132Y-19241670D02*
X8706322Y-19241670D01*
X8658703Y-19175004D02*
X8658703Y-19346432D01*
X8658703Y-19346432D02*
X8668227Y-19365480D01*
X8668227Y-19365480D02*
X8687274Y-19375004D01*
X8687274Y-19375004D02*
X8706322Y-19375004D01*
X8925370Y-19241670D02*
X8925370Y-19441670D01*
X8925370Y-19251194D02*
X8944417Y-19241670D01*
X8944417Y-19241670D02*
X8982513Y-19241670D01*
X8982513Y-19241670D02*
X9001560Y-19251194D01*
X9001560Y-19251194D02*
X9011084Y-19260718D01*
X9011084Y-19260718D02*
X9020608Y-19279766D01*
X9020608Y-19279766D02*
X9020608Y-19336909D01*
X9020608Y-19336909D02*
X9011084Y-19355956D01*
X9011084Y-19355956D02*
X9001560Y-19365480D01*
X9001560Y-19365480D02*
X8982513Y-19375004D01*
X8982513Y-19375004D02*
X8944417Y-19375004D01*
X8944417Y-19375004D02*
X8925370Y-19365480D01*
X9134894Y-19375004D02*
X9115846Y-19365480D01*
X9115846Y-19365480D02*
X9106322Y-19346432D01*
X9106322Y-19346432D02*
X9106322Y-19175004D01*
X9296798Y-19375004D02*
X9296798Y-19270242D01*
X9296798Y-19270242D02*
X9287275Y-19251194D01*
X9287275Y-19251194D02*
X9268227Y-19241670D01*
X9268227Y-19241670D02*
X9230132Y-19241670D01*
X9230132Y-19241670D02*
X9211084Y-19251194D01*
X9296798Y-19365480D02*
X9277751Y-19375004D01*
X9277751Y-19375004D02*
X9230132Y-19375004D01*
X9230132Y-19375004D02*
X9211084Y-19365480D01*
X9211084Y-19365480D02*
X9201560Y-19346432D01*
X9201560Y-19346432D02*
X9201560Y-19327385D01*
X9201560Y-19327385D02*
X9211084Y-19308337D01*
X9211084Y-19308337D02*
X9230132Y-19298813D01*
X9230132Y-19298813D02*
X9277751Y-19298813D01*
X9277751Y-19298813D02*
X9296798Y-19289290D01*
X9363465Y-19241670D02*
X9439655Y-19241670D01*
X9392036Y-19175004D02*
X9392036Y-19346432D01*
X9392036Y-19346432D02*
X9401560Y-19365480D01*
X9401560Y-19365480D02*
X9420608Y-19375004D01*
X9420608Y-19375004D02*
X9439655Y-19375004D01*
X9582513Y-19365480D02*
X9563465Y-19375004D01*
X9563465Y-19375004D02*
X9525370Y-19375004D01*
X9525370Y-19375004D02*
X9506322Y-19365480D01*
X9506322Y-19365480D02*
X9496798Y-19346432D01*
X9496798Y-19346432D02*
X9496798Y-19270242D01*
X9496798Y-19270242D02*
X9506322Y-19251194D01*
X9506322Y-19251194D02*
X9525370Y-19241670D01*
X9525370Y-19241670D02*
X9563465Y-19241670D01*
X9563465Y-19241670D02*
X9582513Y-19251194D01*
X9582513Y-19251194D02*
X9592036Y-19270242D01*
X9592036Y-19270242D02*
X9592036Y-19289290D01*
X9592036Y-19289290D02*
X9496798Y-19308337D01*
X9763465Y-19375004D02*
X9763465Y-19175004D01*
X9763465Y-19365480D02*
X9744417Y-19375004D01*
X9744417Y-19375004D02*
X9706322Y-19375004D01*
X9706322Y-19375004D02*
X9687275Y-19365480D01*
X9687275Y-19365480D02*
X9677751Y-19355956D01*
X9677751Y-19355956D02*
X9668227Y-19336909D01*
X9668227Y-19336909D02*
X9668227Y-19279766D01*
X9668227Y-19279766D02*
X9677751Y-19260718D01*
X9677751Y-19260718D02*
X9687275Y-19251194D01*
X9687275Y-19251194D02*
X9706322Y-19241670D01*
X9706322Y-19241670D02*
X9744417Y-19241670D01*
X9744417Y-19241670D02*
X9763465Y-19251194D01*
X9839656Y-19451194D02*
X9849179Y-19441670D01*
X9849179Y-19441670D02*
X9868227Y-19413099D01*
X9868227Y-19413099D02*
X9877751Y-19394051D01*
X9877751Y-19394051D02*
X9887275Y-19365480D01*
X9887275Y-19365480D02*
X9896798Y-19317861D01*
X9896798Y-19317861D02*
X9896798Y-19279766D01*
X9896798Y-19279766D02*
X9887275Y-19232147D01*
X9887275Y-19232147D02*
X9877751Y-19203575D01*
X9877751Y-19203575D02*
X9868227Y-19184528D01*
X9868227Y-19184528D02*
X9849179Y-19155956D01*
X9849179Y-19155956D02*
X9839656Y-19146432D01*
M02*
