M48
; DRILL file {KiCad 9.0.4} date 2026-03-29T18:02:40-0500
; FORMAT={-:-/ absolute / metric / decimal}
; #@! TF.CreationDate,2026-03-29T18:02:40-05:00
; #@! TF.GenerationSoftware,Kicad,Pcbnew,9.0.4
; #@! TF.FileFunction,Plated,1,4,PTH
FMAT,2
METRIC
; #@! TA.AperFunction,Plated,PTH,ViaDrill
T1C0.508
; #@! TA.AperFunction,Plated,PTH,ComponentDrill
T2C0.750
; #@! TA.AperFunction,Plated,PTH,ComponentDrill
T3C1.000
; #@! TA.AperFunction,Plated,PTH,ComponentDrill
T4C1.300
; #@! TA.AperFunction,Plated,PTH,ComponentDrill
T5C1.320
; #@! TA.AperFunction,Plated,PTH,ComponentDrill
T6C1.850
%
G90
G05
T1
X39.116Y-149.098
X40.132Y-69.342
X41.148Y-43.942
X41.148Y-56.642
X41.148Y-94.742
X41.148Y-107.442
X41.148Y-132.842
X41.148Y-145.542
X41.148Y-158.242
X41.148Y-170.942
X41.148Y-183.642
X50.368Y-77.114
X50.648Y-124.638
X52.07Y-159.795
X53.848Y-56.642
X53.848Y-69.342
X53.848Y-82.042
X53.848Y-107.442
X53.848Y-170.942
X53.848Y-183.642
X65.024Y-56.642
X66.548Y-95.758
X66.548Y-107.442
X66.548Y-145.542
X66.548Y-170.942
X66.548Y-183.642
X67.107Y-116.535
X67.5Y-167.5
X67.539Y-91.237
X67.742Y-68.732
X68.504Y-139.573
X69.723Y-134.772
X78.98Y-75.348
X79.248Y-56.642
X79.248Y-69.342
X79.248Y-94.742
X79.248Y-145.542
X79.248Y-170.942
X79.248Y-183.642
X83.058Y-91.694
X85.776Y-98.4
X86.868Y-139.217
X88.494Y-105.689
X89.549Y-92.075
X91.25Y-157.75
X91.948Y-56.642
X91.948Y-69.342
X91.948Y-82.042
X91.948Y-94.742
X91.948Y-107.442
X91.948Y-120.142
X91.948Y-132.842
X91.948Y-183.642
X96.52Y-96.266
X101.473Y-112.395
X104.115Y-86.385
X104.648Y-43.942
X104.648Y-56.642
X104.648Y-120.142
X104.648Y-158.242
X104.648Y-170.942
X104.648Y-183.642
X105.029Y-68.199
X106.731Y-95.225
X109.093Y-127.635
X109.22Y-123.952
X112.014Y-135.89
X112.141Y-76.2
X112.649Y-70.358
X113.538Y-133.858
X114.62Y-126.492
X114.681Y-120.015
X114.808Y-137.16
X116.52Y-125.476
X116.586Y-112.776
X116.84Y-119.888
X117.348Y-43.942
X117.348Y-56.642
X117.348Y-82.042
X117.348Y-94.742
X117.348Y-158.242
X117.348Y-170.942
X117.348Y-183.642
X118.364Y-160.782
X119.634Y-137.414
X119.685Y-63.195
X121.082Y-71.374
X121.412Y-125.73
X121.666Y-137.857
X121.895Y-86.258
X122.174Y-150.998
X123.197Y-126.365
X123.444Y-138.938
X125.832Y-63.754
X127.762Y-136.906
X128.016Y-170.18
X129.286Y-149.606
X129.537Y-127.483
X130.023Y-75.946
X130.048Y-43.942
X130.556Y-134.366
X130.556Y-164.338
X131.318Y-82.042
X131.847Y-183.57
X132.182Y-71.171
X134.976Y-94.441
X137.109Y-150.063
X137.668Y-111.506
X138.913Y-151.181
X139.09Y-135.966
X141.173Y-68.707
X142.748Y-43.942
X142.748Y-82.042
X142.748Y-107.442
X142.748Y-183.642
X143.0Y-132.0
X144.29Y-135.852
X147.955Y-76.454
X149.098Y-137.922
X149.352Y-85.42
X149.428Y-72.619
X150.114Y-135.636
X152.4Y-130.302
X154.102Y-152.171
X154.661Y-64.287
X155.448Y-43.942
X155.448Y-94.742
X155.448Y-170.942
X155.448Y-183.642
X156.261Y-154.915
X156.464Y-69.85
X156.464Y-173.228
X157.226Y-82.042
X157.404Y-123.52
X158.5Y-129.5
X158.623Y-68.986
X159.448Y-107.442
X161.315Y-64.745
X162.219Y-149.484
X162.814Y-137.922
X163.424Y-135.534
X164.236Y-76.632
X166.116Y-72.873
X168.0Y-138.0
X168.148Y-43.942
X168.148Y-56.642
X168.148Y-82.804
X168.148Y-94.742
X168.148Y-107.442
X168.148Y-158.242
X168.148Y-170.942
X168.5Y-132.969
X170.942Y-138.684
X176.276Y-132.334
X180.594Y-119.634
X180.848Y-43.942
X180.848Y-56.642
X180.848Y-69.342
X180.848Y-82.042
X180.848Y-94.742
X180.848Y-107.442
X180.848Y-132.842
X180.848Y-183.642
X193.015Y-63.627
X193.548Y-43.942
X193.548Y-69.342
X193.548Y-82.042
X194.589Y-90.195
X198.12Y-86.106
X200.66Y-63.475
X205.156Y-94.844
X206.248Y-43.942
X206.248Y-132.842
X206.248Y-170.942
X206.248Y-183.642
X206.756Y-110.236
X209.55Y-95.58
X209.804Y-70.231
X215.646Y-83.439
X215.773Y-89.764
X215.9Y-63.602
X218.948Y-43.942
X218.948Y-69.342
X218.948Y-94.742
X218.948Y-120.142
X218.948Y-132.842
X218.948Y-158.242
X218.948Y-170.942
X218.948Y-183.642
X223.139Y-84.201
X223.393Y-139.065
X223.52Y-153.035
X223.52Y-154.813
X223.647Y-137.16
X224.028Y-121.158
X224.206Y-123.165
X224.663Y-139.065
X224.765Y-154.813
X224.815Y-153.035
X224.917Y-170.688
X225.044Y-169.164
X225.374Y-137.16
X225.654Y-122.555
X225.908Y-104.851
X226.238Y-170.79
X226.492Y-121.082
X226.568Y-169.164
X227.025Y-105.867
X227.533Y-103.734
X228.498Y-104.8
X231.648Y-43.942
X231.648Y-56.642
X231.648Y-82.042
X231.648Y-107.442
X231.648Y-158.242
X231.648Y-183.642
X234.442Y-94.488
X238.252Y-68.072
X238.379Y-69.342
X240.03Y-70.231
X240.106Y-68.529
X240.208Y-94.361
X241.503Y-94.005
X244.348Y-43.942
X244.348Y-56.642
X244.348Y-69.342
X244.348Y-82.042
X244.348Y-120.142
X244.348Y-132.842
X244.348Y-170.942
X244.348Y-183.642
X246.253Y-173.355
X246.38Y-140.57
X246.38Y-155.702
X246.38Y-156.921
X246.961Y-141.151
X247.498Y-173.355
X248.31Y-133.985
X248.717Y-166.065
X251.663Y-120.625
X251.714Y-158.496
X252.603Y-145.542
X252.73Y-158.242
X254.508Y-139.065
X256.311Y-163.17
X256.413Y-161.671
X257.048Y-69.342
X257.048Y-170.942
X257.048Y-183.642
X257.327Y-149.428
X260.274Y-138.811
X260.401Y-134.976
X260.731Y-137.795
X260.985Y-119.761
X262.687Y-168.783
X269.748Y-43.942
X269.748Y-94.742
X269.748Y-107.442
X269.748Y-183.642
X271.272Y-56.642
T2
X33.96Y-155.224
X35.23Y-155.224
X36.5Y-155.224
T3
X54.46Y-145.42
X54.46Y-147.96
X54.46Y-150.5
X54.46Y-153.04
X54.46Y-155.58
X54.46Y-158.12
X54.46Y-160.66
X54.46Y-163.2
X54.46Y-165.74
X54.46Y-168.28
X57.0Y-145.42
X57.0Y-147.96
X57.0Y-150.5
X57.0Y-153.04
X57.0Y-155.58
X57.0Y-158.12
X57.0Y-160.66
X57.0Y-163.2
X57.0Y-165.74
X57.0Y-168.28
X72.517Y-60.452
X72.549Y-108.712
X72.676Y-82.804
X75.057Y-60.452
X75.089Y-108.712
X75.216Y-82.804
X75.286Y-128.524
X77.597Y-60.452
X77.629Y-108.712
X77.756Y-82.804
X77.826Y-128.524
X80.366Y-128.524
T4
X36.093Y-60.145
X36.093Y-65.145
X36.093Y-70.145
X36.093Y-75.145
X36.093Y-80.145
X36.093Y-85.145
X36.093Y-90.145
X36.093Y-95.145
X36.321Y-104.142
X36.321Y-109.142
X36.321Y-114.142
X36.321Y-119.142
X36.321Y-124.142
X36.321Y-129.142
X36.321Y-134.142
X36.321Y-139.142
X44.293Y-60.145
X44.293Y-65.145
X44.293Y-70.145
X44.293Y-75.145
X44.293Y-80.145
X44.293Y-85.145
X44.293Y-90.145
X44.293Y-95.145
X44.521Y-104.142
X44.521Y-109.142
X44.521Y-114.142
X44.521Y-119.142
X44.521Y-124.142
X44.521Y-129.142
X44.521Y-134.142
X44.521Y-139.142
X124.22Y-47.371
X124.22Y-55.571
X129.22Y-47.371
X129.22Y-55.571
X134.22Y-47.371
X134.22Y-55.571
X139.22Y-47.371
X139.22Y-55.571
X144.22Y-47.371
X144.22Y-55.571
X149.22Y-47.371
X149.22Y-55.571
X154.22Y-47.371
X154.22Y-55.571
X159.22Y-47.371
X159.22Y-55.571
X183.163Y-46.914
X183.163Y-55.114
X187.659Y-172.902
X187.659Y-181.102
X188.163Y-46.914
X188.163Y-55.114
X192.659Y-172.902
X192.659Y-181.102
X193.163Y-46.914
X193.163Y-55.114
X198.163Y-46.914
X198.163Y-55.114
X203.163Y-46.914
X203.163Y-55.114
X208.163Y-46.914
X208.163Y-55.114
X213.163Y-46.914
X213.163Y-55.114
X218.163Y-46.914
X218.163Y-55.114
X223.163Y-46.914
X223.163Y-55.114
X228.163Y-46.914
X228.163Y-55.114
X251.371Y-46.684
X251.371Y-54.884
X256.371Y-46.684
X256.371Y-54.884
X267.263Y-57.341
X267.263Y-62.341
X267.925Y-71.823
X267.925Y-76.823
X267.925Y-81.823
X267.925Y-86.823
X267.949Y-122.298
X267.949Y-127.298
X267.949Y-132.298
X267.949Y-137.298
X267.949Y-142.298
X267.949Y-147.298
X267.949Y-152.298
X267.949Y-157.298
X267.949Y-162.298
X267.949Y-167.298
X275.463Y-57.341
X275.463Y-62.341
X276.125Y-71.823
X276.125Y-76.823
X276.125Y-81.823
X276.125Y-86.823
X276.149Y-122.298
X276.149Y-127.298
X276.149Y-132.298
X276.149Y-137.298
X276.149Y-142.298
X276.149Y-147.298
X276.149Y-152.298
X276.149Y-157.298
X276.149Y-162.298
X276.149Y-167.298
T5
X168.91Y-162.666
X168.91Y-185.166
T6
X135.254Y-166.116
X139.954Y-166.116
X144.654Y-166.116
X179.07Y-157.606
X179.07Y-162.306
X179.07Y-167.006
M30
