%TF.GenerationSoftware,KiCad,Pcbnew,9.0.4*%
%TF.CreationDate,2026-03-29T18:02:32-05:00*%
%TF.ProjectId,karca_v2,6b617263-615f-4763-922e-6b696361645f,rev?*%
%TF.SameCoordinates,Original*%
%TF.FileFunction,Paste,Top*%
%TF.FilePolarity,Positive*%
%FSLAX46Y46*%
G04 Gerber Fmt 4.6, Leading zero omitted, Abs format (unit mm)*
G04 Created by KiCad (PCBNEW 9.0.4) date 2026-03-29 18:02:32*
%MOMM*%
%LPD*%
G01*
G04 APERTURE LIST*
G04 Aperture macros list*
%AMRoundRect*
0 Rectangle with rounded corners*
0 $1 Rounding radius*
0 $2 $3 $4 $5 $6 $7 $8 $9 X,Y pos of 4 corners*
0 Add a 4 corners polygon primitive as box body*
4,1,4,$2,$3,$4,$5,$6,$7,$8,$9,$2,$3,0*
0 Add four circle primitives for the rounded corners*
1,1,$1+$1,$2,$3*
1,1,$1+$1,$4,$5*
1,1,$1+$1,$6,$7*
1,1,$1+$1,$8,$9*
0 Add four rect primitives between the rounded corners*
20,1,$1+$1,$2,$3,$4,$5,0*
20,1,$1+$1,$4,$5,$6,$7,0*
20,1,$1+$1,$6,$7,$8,$9,0*
20,1,$1+$1,$8,$9,$2,$3,0*%
G04 Aperture macros list end*
%ADD10RoundRect,0.249999X-0.450001X-1.850001X0.450001X-1.850001X0.450001X1.850001X-0.450001X1.850001X0*%
%ADD11RoundRect,0.250000X0.312500X0.625000X-0.312500X0.625000X-0.312500X-0.625000X0.312500X-0.625000X0*%
%ADD12RoundRect,0.250000X0.375000X0.625000X-0.375000X0.625000X-0.375000X-0.625000X0.375000X-0.625000X0*%
%ADD13RoundRect,0.250000X0.475000X-0.250000X0.475000X0.250000X-0.475000X0.250000X-0.475000X-0.250000X0*%
%ADD14RoundRect,0.250000X0.625000X-0.312500X0.625000X0.312500X-0.625000X0.312500X-0.625000X-0.312500X0*%
%ADD15RoundRect,0.250000X0.325000X0.650000X-0.325000X0.650000X-0.325000X-0.650000X0.325000X-0.650000X0*%
%ADD16RoundRect,0.250000X-0.312500X-0.625000X0.312500X-0.625000X0.312500X0.625000X-0.312500X0.625000X0*%
%ADD17RoundRect,0.150000X0.587500X0.150000X-0.587500X0.150000X-0.587500X-0.150000X0.587500X-0.150000X0*%
%ADD18RoundRect,0.135000X-0.185000X0.135000X-0.185000X-0.135000X0.185000X-0.135000X0.185000X0.135000X0*%
%ADD19RoundRect,0.150000X-0.825000X-0.150000X0.825000X-0.150000X0.825000X0.150000X-0.825000X0.150000X0*%
%ADD20RoundRect,0.100000X-0.712500X-0.100000X0.712500X-0.100000X0.712500X0.100000X-0.712500X0.100000X0*%
%ADD21RoundRect,0.150000X0.825000X0.150000X-0.825000X0.150000X-0.825000X-0.150000X0.825000X-0.150000X0*%
%ADD22R,0.650000X0.400000*%
%ADD23RoundRect,0.250000X-0.650000X0.325000X-0.650000X-0.325000X0.650000X-0.325000X0.650000X0.325000X0*%
%ADD24RoundRect,0.150000X-0.150000X0.825000X-0.150000X-0.825000X0.150000X-0.825000X0.150000X0.825000X0*%
%ADD25RoundRect,0.250000X-0.650000X1.000000X-0.650000X-1.000000X0.650000X-1.000000X0.650000X1.000000X0*%
%ADD26RoundRect,0.250000X-0.625000X0.312500X-0.625000X-0.312500X0.625000X-0.312500X0.625000X0.312500X0*%
%ADD27RoundRect,0.250000X0.650000X-0.325000X0.650000X0.325000X-0.650000X0.325000X-0.650000X-0.325000X0*%
%ADD28RoundRect,0.250000X-0.325000X-0.650000X0.325000X-0.650000X0.325000X0.650000X-0.325000X0.650000X0*%
%ADD29RoundRect,0.200000X0.275000X-0.200000X0.275000X0.200000X-0.275000X0.200000X-0.275000X-0.200000X0*%
%ADD30RoundRect,0.250000X-0.375000X-0.625000X0.375000X-0.625000X0.375000X0.625000X-0.375000X0.625000X0*%
%ADD31RoundRect,0.250000X-0.250000X-0.475000X0.250000X-0.475000X0.250000X0.475000X-0.250000X0.475000X0*%
%ADD32RoundRect,0.250000X-0.312500X-1.450000X0.312500X-1.450000X0.312500X1.450000X-0.312500X1.450000X0*%
%ADD33RoundRect,0.135000X0.185000X-0.135000X0.185000X0.135000X-0.185000X0.135000X-0.185000X-0.135000X0*%
%ADD34RoundRect,0.250000X0.362500X1.425000X-0.362500X1.425000X-0.362500X-1.425000X0.362500X-1.425000X0*%
%ADD35R,4.860000X3.360000*%
%ADD36R,1.400000X1.390000*%
%ADD37RoundRect,0.250000X0.450000X0.425000X-0.450000X0.425000X-0.450000X-0.425000X0.450000X-0.425000X0*%
%ADD38RoundRect,0.250000X0.625000X-0.375000X0.625000X0.375000X-0.625000X0.375000X-0.625000X-0.375000X0*%
%ADD39RoundRect,0.150000X0.512500X0.150000X-0.512500X0.150000X-0.512500X-0.150000X0.512500X-0.150000X0*%
%ADD40R,0.400000X0.650000*%
%ADD41RoundRect,0.140000X0.140000X0.170000X-0.140000X0.170000X-0.140000X-0.170000X0.140000X-0.170000X0*%
%ADD42RoundRect,0.250000X-0.475000X0.250000X-0.475000X-0.250000X0.475000X-0.250000X0.475000X0.250000X0*%
%ADD43RoundRect,0.150000X0.150000X-0.587500X0.150000X0.587500X-0.150000X0.587500X-0.150000X-0.587500X0*%
%ADD44RoundRect,0.100000X-0.100000X0.637500X-0.100000X-0.637500X0.100000X-0.637500X0.100000X0.637500X0*%
%ADD45RoundRect,0.160000X-0.160000X0.245000X-0.160000X-0.245000X0.160000X-0.245000X0.160000X0.245000X0*%
%ADD46RoundRect,0.093750X-0.106250X0.093750X-0.106250X-0.093750X0.106250X-0.093750X0.106250X0.093750X0*%
%ADD47RoundRect,0.150000X-0.587500X-0.150000X0.587500X-0.150000X0.587500X0.150000X-0.587500X0.150000X0*%
%ADD48RoundRect,0.150000X-0.512500X-0.150000X0.512500X-0.150000X0.512500X0.150000X-0.512500X0.150000X0*%
%ADD49RoundRect,0.140000X-0.140000X-0.170000X0.140000X-0.170000X0.140000X0.170000X-0.140000X0.170000X0*%
%ADD50RoundRect,0.140000X0.170000X-0.140000X0.170000X0.140000X-0.170000X0.140000X-0.170000X-0.140000X0*%
%ADD51RoundRect,0.250000X1.425000X-0.362500X1.425000X0.362500X-1.425000X0.362500X-1.425000X-0.362500X0*%
%ADD52RoundRect,0.200000X-0.200000X-0.275000X0.200000X-0.275000X0.200000X0.275000X-0.200000X0.275000X0*%
%ADD53RoundRect,0.250000X-0.362500X-1.425000X0.362500X-1.425000X0.362500X1.425000X-0.362500X1.425000X0*%
%ADD54RoundRect,0.250000X-1.425000X0.362500X-1.425000X-0.362500X1.425000X-0.362500X1.425000X0.362500X0*%
%ADD55RoundRect,0.250000X0.250000X0.475000X-0.250000X0.475000X-0.250000X-0.475000X0.250000X-0.475000X0*%
%ADD56RoundRect,0.250000X-0.450000X0.262500X-0.450000X-0.262500X0.450000X-0.262500X0.450000X0.262500X0*%
G04 APERTURE END LIST*
D10*
%TO.C,L1*%
X122102000Y-169926000D03*
X125802000Y-169926000D03*
%TD*%
D11*
%TO.C,R13*%
X33978672Y-159851196D03*
X36903672Y-159851196D03*
%TD*%
D12*
%TO.C,D6*%
X34168172Y-162264196D03*
X36968172Y-162264196D03*
%TD*%
D13*
%TO.C,C17*%
X128778000Y-167320000D03*
X128778000Y-165420000D03*
%TD*%
D11*
%TO.C,R40*%
X61340000Y-120493800D03*
X58415000Y-120493800D03*
%TD*%
D14*
%TO.C,R27*%
X67564000Y-86044500D03*
X67564000Y-83119500D03*
%TD*%
D15*
%TO.C,C54*%
X150629500Y-69173300D03*
X147679500Y-69173300D03*
%TD*%
D16*
%TO.C,R49*%
X196703800Y-90424000D03*
X199628800Y-90424000D03*
%TD*%
%TO.C,R70*%
X125425800Y-87304000D03*
X128350800Y-87304000D03*
%TD*%
D17*
%TO.C,U23*%
X106093500Y-77023000D03*
X106093500Y-75123000D03*
X104218500Y-76073000D03*
%TD*%
D14*
%TO.C,R80*%
X141005400Y-73983400D03*
X141005400Y-71058400D03*
%TD*%
D11*
%TO.C,R98*%
X222269000Y-147142200D03*
X219344000Y-147142200D03*
%TD*%
D18*
%TO.C,R52*%
X202666600Y-83564000D03*
X202666600Y-84584000D03*
%TD*%
D14*
%TO.C,R25*%
X111586400Y-93752100D03*
X111586400Y-90827100D03*
%TD*%
D19*
%TO.C,U21*%
X67084400Y-133527800D03*
X67084400Y-134797800D03*
X67084400Y-136067800D03*
X67084400Y-137337800D03*
X72034400Y-137337800D03*
X72034400Y-136067800D03*
X72034400Y-134797800D03*
X72034400Y-133527800D03*
%TD*%
D11*
%TO.C,R121*%
X223092500Y-179174400D03*
X220167500Y-179174400D03*
%TD*%
D20*
%TO.C,U22*%
X110009500Y-75508600D03*
X110009500Y-76158600D03*
X110009500Y-76808600D03*
X110009500Y-77458600D03*
X114234500Y-77458600D03*
X114234500Y-76808600D03*
X114234500Y-76158600D03*
X114234500Y-75508600D03*
%TD*%
D21*
%TO.C,U9*%
X207579000Y-99390200D03*
X207579000Y-98120200D03*
X207579000Y-96850200D03*
X207579000Y-95580200D03*
X207579000Y-94310200D03*
X207579000Y-93040200D03*
X207579000Y-91770200D03*
X202629000Y-91770200D03*
X202629000Y-93040200D03*
X202629000Y-94310200D03*
X202629000Y-95580200D03*
X202629000Y-96850200D03*
X202629000Y-98120200D03*
X202629000Y-99390200D03*
%TD*%
D22*
%TO.C,U14*%
X123571000Y-63906400D03*
X123571000Y-63256400D03*
X123571000Y-62606400D03*
X121671000Y-62606400D03*
X121671000Y-63256400D03*
X121671000Y-63906400D03*
%TD*%
D23*
%TO.C,C4*%
X106658800Y-90763800D03*
X106658800Y-93713800D03*
%TD*%
D16*
%TO.C,R73*%
X134306900Y-72292600D03*
X137231900Y-72292600D03*
%TD*%
D24*
%TO.C,U7*%
X89549200Y-96277400D03*
X88279200Y-96277400D03*
X87009200Y-96277400D03*
X85739200Y-96277400D03*
X84469200Y-96277400D03*
X83199200Y-96277400D03*
X81929200Y-96277400D03*
X81929200Y-101227400D03*
X83199200Y-101227400D03*
X84469200Y-101227400D03*
X85739200Y-101227400D03*
X87009200Y-101227400D03*
X88279200Y-101227400D03*
X89549200Y-101227400D03*
%TD*%
%TO.C,U11*%
X174283600Y-129609100D03*
X173013600Y-129609100D03*
X171743600Y-129609100D03*
X170473600Y-129609100D03*
X169203600Y-129609100D03*
X167933600Y-129609100D03*
X166663600Y-129609100D03*
X165393600Y-129609100D03*
X165393600Y-134559100D03*
X166663600Y-134559100D03*
X167933600Y-134559100D03*
X169203600Y-134559100D03*
X170473600Y-134559100D03*
X171743600Y-134559100D03*
X173013600Y-134559100D03*
X174283600Y-134559100D03*
%TD*%
D25*
%TO.C,D20*%
X243154200Y-157080200D03*
X243154200Y-161080200D03*
%TD*%
D16*
%TO.C,R89*%
X221934500Y-110211400D03*
X224859500Y-110211400D03*
%TD*%
D26*
%TO.C,R46*%
X111561000Y-105269000D03*
X111561000Y-108194000D03*
%TD*%
D16*
%TO.C,R50*%
X200579300Y-60960000D03*
X203504300Y-60960000D03*
%TD*%
D26*
%TO.C,R5*%
X93980000Y-101407500D03*
X93980000Y-104332500D03*
%TD*%
D14*
%TO.C,R111*%
X262894300Y-137911300D03*
X262894300Y-134986300D03*
%TD*%
D27*
%TO.C,C40*%
X117932200Y-79046600D03*
X117932200Y-76096600D03*
%TD*%
D28*
%TO.C,C9*%
X209599000Y-72644000D03*
X212549000Y-72644000D03*
%TD*%
D29*
%TO.C,R11*%
X122555000Y-159956000D03*
X122555000Y-158306000D03*
%TD*%
D11*
%TO.C,R83*%
X148585700Y-99419800D03*
X145660700Y-99419800D03*
%TD*%
D30*
%TO.C,D5*%
X124664000Y-178308000D03*
X127464000Y-178308000D03*
%TD*%
D31*
%TO.C,C3*%
X149926000Y-133858000D03*
X151826000Y-133858000D03*
%TD*%
D19*
%TO.C,U20*%
X64708000Y-115189000D03*
X64708000Y-116459000D03*
X64708000Y-117729000D03*
X64708000Y-118999000D03*
X69658000Y-118999000D03*
X69658000Y-117729000D03*
X69658000Y-116459000D03*
X69658000Y-115189000D03*
%TD*%
D20*
%TO.C,U24*%
X127843900Y-75838800D03*
X127843900Y-76488800D03*
X127843900Y-77138800D03*
X127843900Y-77788800D03*
X132068900Y-77788800D03*
X132068900Y-77138800D03*
X132068900Y-76488800D03*
X132068900Y-75838800D03*
%TD*%
D18*
%TO.C,R57*%
X205841600Y-83564000D03*
X205841600Y-84584000D03*
%TD*%
D23*
%TO.C,C21*%
X109122600Y-90789200D03*
X109122600Y-93739200D03*
%TD*%
D32*
%TO.C,F2*%
X243572600Y-72113600D03*
X247847600Y-72113600D03*
%TD*%
D33*
%TO.C,R62*%
X206613800Y-106430000D03*
X206613800Y-105410000D03*
%TD*%
D34*
%TO.C,R122*%
X161839500Y-165989000D03*
X155914500Y-165989000D03*
%TD*%
D35*
%TO.C,D1*%
X172742000Y-152503973D03*
D36*
X176724000Y-151583973D03*
X176724000Y-153423973D03*
%TD*%
D11*
%TO.C,R55*%
X208431900Y-61010800D03*
X205506900Y-61010800D03*
%TD*%
D37*
%TO.C,C19*%
X75289400Y-66421000D03*
X72589400Y-66421000D03*
%TD*%
D38*
%TO.C,D10*%
X239043400Y-107696000D03*
X239043400Y-104896000D03*
%TD*%
D28*
%TO.C,C66*%
X251614600Y-118208600D03*
X254564600Y-118208600D03*
%TD*%
D26*
%TO.C,R39*%
X101832800Y-105279700D03*
X101832800Y-108204700D03*
%TD*%
%TO.C,R78*%
X153111200Y-67396900D03*
X153111200Y-70321900D03*
%TD*%
D14*
%TO.C,R24*%
X114228000Y-88708200D03*
X114228000Y-85783200D03*
%TD*%
D15*
%TO.C,C49*%
X133104200Y-92180800D03*
X130154200Y-92180800D03*
%TD*%
D39*
%TO.C,U33*%
X160012183Y-171415400D03*
X160012183Y-170465400D03*
X160012183Y-169515400D03*
X157737183Y-169515400D03*
X157737183Y-171415400D03*
%TD*%
D28*
%TO.C,C16*%
X130177300Y-94629000D03*
X133127300Y-94629000D03*
%TD*%
D40*
%TO.C,U2*%
X50277000Y-81239400D03*
X50927000Y-81239400D03*
X51577000Y-81239400D03*
X51577000Y-79339400D03*
X50927000Y-79339400D03*
X50277000Y-79339400D03*
%TD*%
D14*
%TO.C,R102*%
X201203600Y-108335000D03*
X201203600Y-105410000D03*
%TD*%
D26*
%TO.C,R92*%
X236902800Y-129118900D03*
X236902800Y-132043900D03*
%TD*%
D28*
%TO.C,C38*%
X210877400Y-102235000D03*
X213827400Y-102235000D03*
%TD*%
D26*
%TO.C,R115*%
X251692900Y-160818100D03*
X251692900Y-163743100D03*
%TD*%
%TO.C,R119*%
X237341900Y-177960500D03*
X237341900Y-180885500D03*
%TD*%
D16*
%TO.C,R79*%
X151756700Y-72749800D03*
X154681700Y-72749800D03*
%TD*%
D39*
%TO.C,U8*%
X125343500Y-163764000D03*
X125343500Y-162814000D03*
X125343500Y-161864000D03*
X123068500Y-161864000D03*
X123068500Y-162814000D03*
X123068500Y-163764000D03*
%TD*%
D32*
%TO.C,F4*%
X229710700Y-121694200D03*
X233985700Y-121694200D03*
%TD*%
D24*
%TO.C,U3*%
X148056600Y-128785100D03*
X146786600Y-128785100D03*
X145516600Y-128785100D03*
X144246600Y-128785100D03*
X142976600Y-128785100D03*
X141706600Y-128785100D03*
X140436600Y-128785100D03*
X139166600Y-128785100D03*
X139166600Y-133735100D03*
X140436600Y-133735100D03*
X141706600Y-133735100D03*
X142976600Y-133735100D03*
X144246600Y-133735100D03*
X145516600Y-133735100D03*
X146786600Y-133735100D03*
X148056600Y-133735100D03*
%TD*%
D41*
%TO.C,C44*%
X116939000Y-73279000D03*
X115979000Y-73279000D03*
%TD*%
D26*
%TO.C,R123*%
X161444683Y-173211400D03*
X161444683Y-176136400D03*
%TD*%
D14*
%TO.C,R32*%
X101756600Y-93675900D03*
X101756600Y-90750900D03*
%TD*%
D42*
%TO.C,C2*%
X128778000Y-161864000D03*
X128778000Y-163764000D03*
%TD*%
D16*
%TO.C,R14*%
X257515900Y-71717700D03*
X260440900Y-71717700D03*
%TD*%
D43*
%TO.C,Q1*%
X228920000Y-112443500D03*
X230820000Y-112443500D03*
X229870000Y-110568500D03*
%TD*%
D41*
%TO.C,C59*%
X163240300Y-72938600D03*
X162280300Y-72938600D03*
%TD*%
%TO.C,C70*%
X256029400Y-144348200D03*
X255069400Y-144348200D03*
%TD*%
D40*
%TO.C,U5*%
X50683400Y-127924600D03*
X51333400Y-127924600D03*
X51983400Y-127924600D03*
X51983400Y-126024600D03*
X51333400Y-126024600D03*
X50683400Y-126024600D03*
%TD*%
D34*
%TO.C,R116*%
X260569300Y-159689800D03*
X254644300Y-159689800D03*
%TD*%
D33*
%TO.C,R35*%
X64287400Y-108081000D03*
X64287400Y-107061000D03*
%TD*%
D32*
%TO.C,F3*%
X232333900Y-104365600D03*
X236608900Y-104365600D03*
%TD*%
D14*
%TO.C,R34*%
X68656200Y-109945900D03*
X68656200Y-107020900D03*
%TD*%
D32*
%TO.C,F5*%
X230018500Y-137591800D03*
X234293500Y-137591800D03*
%TD*%
D27*
%TO.C,C52*%
X153924000Y-82247000D03*
X153924000Y-79297000D03*
%TD*%
D44*
%TO.C,U31*%
X259332500Y-147759500D03*
X258682500Y-147759500D03*
X258032500Y-147759500D03*
X257382500Y-147759500D03*
X256732500Y-147759500D03*
X256082500Y-147759500D03*
X255432500Y-147759500D03*
X255432500Y-153484500D03*
X256082500Y-153484500D03*
X256732500Y-153484500D03*
X257382500Y-153484500D03*
X258032500Y-153484500D03*
X258682500Y-153484500D03*
X259332500Y-153484500D03*
%TD*%
D43*
%TO.C,Q4*%
X240924000Y-80010000D03*
X242824000Y-80010000D03*
X241874000Y-78135000D03*
%TD*%
D24*
%TO.C,U13*%
X124333000Y-129097000D03*
X123063000Y-129097000D03*
X121793000Y-129097000D03*
X120523000Y-129097000D03*
X119253000Y-129097000D03*
X117983000Y-129097000D03*
X116713000Y-129097000D03*
X115443000Y-129097000D03*
X115443000Y-134047000D03*
X116713000Y-134047000D03*
X117983000Y-134047000D03*
X119253000Y-134047000D03*
X120523000Y-134047000D03*
X121793000Y-134047000D03*
X123063000Y-134047000D03*
X124333000Y-134047000D03*
%TD*%
D27*
%TO.C,C29*%
X104220400Y-108217200D03*
X104220400Y-105267200D03*
%TD*%
D16*
%TO.C,R67*%
X115891900Y-70921000D03*
X118816900Y-70921000D03*
%TD*%
D11*
%TO.C,R59*%
X213867500Y-99872800D03*
X210942500Y-99872800D03*
%TD*%
D14*
%TO.C,R74*%
X123225400Y-74019800D03*
X123225400Y-71094800D03*
%TD*%
D33*
%TO.C,R42*%
X67437000Y-128145000D03*
X67437000Y-127125000D03*
%TD*%
%TO.C,R21*%
X65633600Y-60835000D03*
X65633600Y-59815000D03*
%TD*%
D17*
%TO.C,U29*%
X158798500Y-78801000D03*
X158798500Y-76901000D03*
X156923500Y-77851000D03*
%TD*%
D11*
%TO.C,R53*%
X218820500Y-87807800D03*
X215895500Y-87807800D03*
%TD*%
D45*
%TO.C,U1*%
X162288800Y-151996700D03*
X161488800Y-151996700D03*
D46*
X162538800Y-151109200D03*
X161888800Y-151109200D03*
X161238800Y-151109200D03*
X161238800Y-152884200D03*
X161888800Y-152884200D03*
X162538800Y-152884200D03*
%TD*%
D16*
%TO.C,R97*%
X219318600Y-144576800D03*
X222243600Y-144576800D03*
%TD*%
D26*
%TO.C,R69*%
X127086200Y-67056200D03*
X127086200Y-69981200D03*
%TD*%
D47*
%TO.C,D4*%
X130810000Y-150876000D03*
X130810000Y-152776000D03*
X132685000Y-151826000D03*
%TD*%
D37*
%TO.C,C31*%
X78058000Y-132537200D03*
X75358000Y-132537200D03*
%TD*%
D11*
%TO.C,R30*%
X61294400Y-90994200D03*
X58369400Y-90994200D03*
%TD*%
D42*
%TO.C,C1*%
X120650000Y-164150000D03*
X120650000Y-166050000D03*
%TD*%
D28*
%TO.C,C39*%
X210904600Y-97485200D03*
X213854600Y-97485200D03*
%TD*%
D26*
%TO.C,R16*%
X262864600Y-83729100D03*
X262864600Y-86654100D03*
%TD*%
D37*
%TO.C,C27*%
X74603600Y-114274600D03*
X71903600Y-114274600D03*
%TD*%
D11*
%TO.C,R23*%
X61279500Y-68072000D03*
X58354500Y-68072000D03*
%TD*%
D17*
%TO.C,U25*%
X124254500Y-78166000D03*
X124254500Y-76266000D03*
X122379500Y-77216000D03*
%TD*%
D15*
%TO.C,C8*%
X213883000Y-95097600D03*
X210933000Y-95097600D03*
%TD*%
D11*
%TO.C,R54*%
X213943700Y-90246200D03*
X211018700Y-90246200D03*
%TD*%
D26*
%TO.C,R96*%
X237042700Y-145040900D03*
X237042700Y-147965900D03*
%TD*%
%TO.C,R15*%
X250311400Y-78753700D03*
X250311400Y-81678700D03*
%TD*%
D23*
%TO.C,C25*%
X104195000Y-90763800D03*
X104195000Y-93713800D03*
%TD*%
D33*
%TO.C,R103*%
X203540400Y-106682000D03*
X203540400Y-105662000D03*
%TD*%
D26*
%TO.C,R56*%
X208239400Y-81733200D03*
X208239400Y-84658200D03*
%TD*%
D25*
%TO.C,D17*%
X243611400Y-140570200D03*
X243611400Y-144570200D03*
%TD*%
D16*
%TO.C,R100*%
X196616900Y-100076000D03*
X199541900Y-100076000D03*
%TD*%
D19*
%TO.C,U19*%
X64900000Y-90017600D03*
X64900000Y-91287600D03*
X64900000Y-92557600D03*
X64900000Y-93827600D03*
X69850000Y-93827600D03*
X69850000Y-92557600D03*
X69850000Y-91287600D03*
X69850000Y-90017600D03*
%TD*%
D31*
%TO.C,C73*%
X126763000Y-134366000D03*
X128663000Y-134366000D03*
%TD*%
D27*
%TO.C,C18*%
X114151800Y-93739200D03*
X114151800Y-90789200D03*
%TD*%
D48*
%TO.C,U36*%
X151581883Y-155996900D03*
X151581883Y-156946900D03*
X151581883Y-157896900D03*
X153856883Y-157896900D03*
X153856883Y-155996900D03*
%TD*%
D15*
%TO.C,C65*%
X199554400Y-97713800D03*
X196604400Y-97713800D03*
%TD*%
D38*
%TO.C,D22*%
X237341900Y-175723000D03*
X237341900Y-172923000D03*
%TD*%
D26*
%TO.C,R81*%
X162455500Y-67615300D03*
X162455500Y-70540300D03*
%TD*%
D23*
%TO.C,C5*%
X85678400Y-91017800D03*
X85678400Y-93967800D03*
%TD*%
D15*
%TO.C,C20*%
X75367800Y-68972400D03*
X72417800Y-68972400D03*
%TD*%
D26*
%TO.C,R10*%
X93980000Y-96327500D03*
X93980000Y-99252500D03*
%TD*%
D27*
%TO.C,C33*%
X109148000Y-108219000D03*
X109148000Y-105269000D03*
%TD*%
D20*
%TO.C,U26*%
X145544100Y-75788000D03*
X145544100Y-76438000D03*
X145544100Y-77088000D03*
X145544100Y-77738000D03*
X149769100Y-77738000D03*
X149769100Y-77088000D03*
X149769100Y-76438000D03*
X149769100Y-75788000D03*
%TD*%
D49*
%TO.C,C76*%
X153839600Y-154484400D03*
X154799600Y-154484400D03*
%TD*%
D18*
%TO.C,R127*%
X202666600Y-81405000D03*
X202666600Y-82425000D03*
%TD*%
D19*
%TO.C,U17*%
X137039400Y-90631400D03*
X137039400Y-91901400D03*
X137039400Y-93171400D03*
X137039400Y-94441400D03*
X137039400Y-95711400D03*
X137039400Y-96981400D03*
X137039400Y-98251400D03*
X141989400Y-98251400D03*
X141989400Y-96981400D03*
X141989400Y-95711400D03*
X141989400Y-94441400D03*
X141989400Y-93171400D03*
X141989400Y-91901400D03*
X141989400Y-90631400D03*
%TD*%
D15*
%TO.C,C32*%
X78206900Y-134844800D03*
X75256900Y-134844800D03*
%TD*%
%TO.C,C42*%
X114383700Y-67456800D03*
X111433700Y-67456800D03*
%TD*%
D38*
%TO.C,D8*%
X250209800Y-74834400D03*
X250209800Y-72034400D03*
%TD*%
%TO.C,D2*%
X152222200Y-172900800D03*
X152222200Y-170100800D03*
%TD*%
D22*
%TO.C,U16*%
X158064200Y-65013600D03*
X158064200Y-64363600D03*
X158064200Y-63713600D03*
X156164200Y-63713600D03*
X156164200Y-64363600D03*
X156164200Y-65013600D03*
%TD*%
D11*
%TO.C,R44*%
X63438500Y-133727200D03*
X60513500Y-133727200D03*
%TD*%
D16*
%TO.C,R48*%
X191943300Y-88061800D03*
X194868300Y-88061800D03*
%TD*%
D26*
%TO.C,R72*%
X135493600Y-67310200D03*
X135493600Y-70235200D03*
%TD*%
D16*
%TO.C,R12*%
X33970500Y-149127800D03*
X36895500Y-149127800D03*
%TD*%
D41*
%TO.C,C47*%
X128369000Y-72263000D03*
X127409000Y-72263000D03*
%TD*%
D27*
%TO.C,C58*%
X169526000Y-80879600D03*
X169526000Y-77929600D03*
%TD*%
D32*
%TO.C,F6*%
X230217800Y-153847800D03*
X234492800Y-153847800D03*
%TD*%
D15*
%TO.C,C28*%
X74830200Y-116586000D03*
X71880200Y-116586000D03*
%TD*%
D27*
%TO.C,C22*%
X99140400Y-93677700D03*
X99140400Y-90727700D03*
%TD*%
D16*
%TO.C,R120*%
X220192900Y-176659800D03*
X223117900Y-176659800D03*
%TD*%
D50*
%TO.C,C62*%
X168783000Y-75946000D03*
X168783000Y-74986000D03*
%TD*%
D39*
%TO.C,U30*%
X254354100Y-115501000D03*
X254354100Y-114551000D03*
X254354100Y-113601000D03*
X252079100Y-113601000D03*
X252079100Y-115501000D03*
%TD*%
D37*
%TO.C,C23*%
X75086200Y-88900000D03*
X72386200Y-88900000D03*
%TD*%
D28*
%TO.C,Ce3*%
X145612100Y-87354800D03*
X148562100Y-87354800D03*
%TD*%
D51*
%TO.C,R112*%
X251714000Y-149054000D03*
X251714000Y-143129000D03*
%TD*%
D26*
%TO.C,R75*%
X144557100Y-67162700D03*
X144557100Y-70087700D03*
%TD*%
D13*
%TO.C,C6*%
X146812000Y-138110000D03*
X146812000Y-136210000D03*
%TD*%
D38*
%TO.C,D13*%
X236852000Y-127028400D03*
X236852000Y-124228400D03*
%TD*%
D16*
%TO.C,R60*%
X220721500Y-60756800D03*
X223646500Y-60756800D03*
%TD*%
D14*
%TO.C,R68*%
X105161700Y-73084900D03*
X105161700Y-70159900D03*
%TD*%
D18*
%TO.C,R128*%
X205841600Y-81532000D03*
X205841600Y-82552000D03*
%TD*%
D38*
%TO.C,D19*%
X237113300Y-159251500D03*
X237113300Y-156451500D03*
%TD*%
D31*
%TO.C,C14*%
X176088000Y-134620000D03*
X177988000Y-134620000D03*
%TD*%
D11*
%TO.C,R76*%
X153274000Y-87329400D03*
X150349000Y-87329400D03*
%TD*%
D26*
%TO.C,R88*%
X239119600Y-109761100D03*
X239119600Y-112686100D03*
%TD*%
D41*
%TO.C,C56*%
X153007000Y-74930000D03*
X152047000Y-74930000D03*
%TD*%
D14*
%TO.C,R1*%
X148996417Y-173030100D03*
X148996417Y-170105100D03*
%TD*%
D28*
%TO.C,C72*%
X260272000Y-166319200D03*
X263222000Y-166319200D03*
%TD*%
D33*
%TO.C,R29*%
X64871600Y-84330000D03*
X64871600Y-83310000D03*
%TD*%
D27*
%TO.C,C75*%
X161670983Y-181443400D03*
X161670983Y-178493400D03*
%TD*%
D26*
%TO.C,R45*%
X113948600Y-110069600D03*
X113948600Y-112994600D03*
%TD*%
D28*
%TO.C,Ce4*%
X145648200Y-101807400D03*
X148598200Y-101807400D03*
%TD*%
D15*
%TO.C,C64*%
X199554400Y-102554500D03*
X196604400Y-102554500D03*
%TD*%
D33*
%TO.C,R129*%
X206603600Y-108587000D03*
X206603600Y-107567000D03*
%TD*%
D26*
%TO.C,R38*%
X99419800Y-110029500D03*
X99419800Y-112954500D03*
%TD*%
%TO.C,R105*%
X237032800Y-162824700D03*
X237032800Y-165749700D03*
%TD*%
D32*
%TO.C,F7*%
X229967700Y-170459400D03*
X234242700Y-170459400D03*
%TD*%
D11*
%TO.C,R19*%
X236387100Y-79007500D03*
X233462100Y-79007500D03*
%TD*%
D14*
%TO.C,R14*%
X122174000Y-178500500D03*
X122174000Y-175575500D03*
%TD*%
D15*
%TO.C,Ce2*%
X133127800Y-87329400D03*
X130177800Y-87329400D03*
%TD*%
D52*
%TO.C,R3*%
X119698000Y-161798000D03*
X121348000Y-161798000D03*
%TD*%
D25*
%TO.C,D14*%
X243430600Y-125558800D03*
X243430600Y-129558800D03*
%TD*%
D15*
%TO.C,C60*%
X167511900Y-69306400D03*
X164561900Y-69306400D03*
%TD*%
D49*
%TO.C,C74*%
X157762000Y-172897800D03*
X158722000Y-172897800D03*
%TD*%
D11*
%TO.C,R33*%
X61523000Y-95871000D03*
X58598000Y-95871000D03*
%TD*%
%TO.C,R101*%
X186268400Y-60960000D03*
X183343400Y-60960000D03*
%TD*%
%TO.C,R26*%
X61359900Y-73061800D03*
X58434900Y-73061800D03*
%TD*%
D15*
%TO.C,C43*%
X133155000Y-97057600D03*
X130205000Y-97057600D03*
%TD*%
D16*
%TO.C,R64*%
X125416900Y-101909000D03*
X128341900Y-101909000D03*
%TD*%
D43*
%TO.C,Q12*%
X227650000Y-178483500D03*
X229550000Y-178483500D03*
X228600000Y-176608500D03*
%TD*%
D16*
%TO.C,R85*%
X168165100Y-73283200D03*
X171090100Y-73283200D03*
%TD*%
D15*
%TO.C,C24*%
X75162800Y-91349800D03*
X72212800Y-91349800D03*
%TD*%
D38*
%TO.C,D16*%
X237042700Y-142903400D03*
X237042700Y-140103400D03*
%TD*%
D14*
%TO.C,R41*%
X70612000Y-129986500D03*
X70612000Y-127061500D03*
%TD*%
D28*
%TO.C,C37*%
X211031600Y-92633800D03*
X213981600Y-92633800D03*
%TD*%
D41*
%TO.C,C41*%
X109728000Y-71374000D03*
X108768000Y-71374000D03*
%TD*%
D26*
%TO.C,R66*%
X117201300Y-65943500D03*
X117201300Y-68868500D03*
%TD*%
D41*
%TO.C,C53*%
X145646700Y-72703900D03*
X144686700Y-72703900D03*
%TD*%
D11*
%TO.C,R94*%
X222591900Y-129517400D03*
X219666900Y-129517400D03*
%TD*%
D33*
%TO.C,R28*%
X64871600Y-82298000D03*
X64871600Y-81278000D03*
%TD*%
D15*
%TO.C,C34*%
X199656000Y-88061800D03*
X196706000Y-88061800D03*
%TD*%
D26*
%TO.C,R17*%
X262915400Y-88845200D03*
X262915400Y-91770200D03*
%TD*%
D16*
%TO.C,R106*%
X220228700Y-162687000D03*
X223153700Y-162687000D03*
%TD*%
D11*
%TO.C,R47*%
X63692500Y-138963400D03*
X60767500Y-138963400D03*
%TD*%
D23*
%TO.C,C26*%
X99394400Y-105267200D03*
X99394400Y-108217200D03*
%TD*%
D28*
%TO.C,C55*%
X145648200Y-92130000D03*
X148598200Y-92130000D03*
%TD*%
D14*
%TO.C,R31*%
X99191200Y-88748300D03*
X99191200Y-85823300D03*
%TD*%
D33*
%TO.C,R22*%
X65633600Y-63121000D03*
X65633600Y-62101000D03*
%TD*%
D26*
%TO.C,R84*%
X169643700Y-67945500D03*
X169643700Y-70870500D03*
%TD*%
D28*
%TO.C,C36*%
X211020900Y-87807800D03*
X213970900Y-87807800D03*
%TD*%
D26*
%TO.C,R51*%
X200416200Y-81798700D03*
X200416200Y-84723700D03*
%TD*%
D11*
%TO.C,R90*%
X224884900Y-112649800D03*
X221959900Y-112649800D03*
%TD*%
D16*
%TO.C,R109*%
X256235200Y-115417600D03*
X259160200Y-115417600D03*
%TD*%
%TO.C,R65*%
X130192100Y-99496000D03*
X133117100Y-99496000D03*
%TD*%
D14*
%TO.C,R20*%
X68580000Y-62930500D03*
X68580000Y-60005500D03*
%TD*%
D15*
%TO.C,C35*%
X199605200Y-92837000D03*
X196655200Y-92837000D03*
%TD*%
D19*
%TO.C,U18*%
X65038200Y-67513200D03*
X65038200Y-68783200D03*
X65038200Y-70053200D03*
X65038200Y-71323200D03*
X69988200Y-71323200D03*
X69988200Y-70053200D03*
X69988200Y-68783200D03*
X69988200Y-67513200D03*
%TD*%
D16*
%TO.C,R93*%
X219622700Y-126291800D03*
X222547700Y-126291800D03*
%TD*%
D20*
%TO.C,U28*%
X161871300Y-76037400D03*
X161871300Y-76687400D03*
X161871300Y-77337400D03*
X161871300Y-77987400D03*
X166096300Y-77987400D03*
X166096300Y-77337400D03*
X166096300Y-76687400D03*
X166096300Y-76037400D03*
%TD*%
D43*
%TO.C,Q11*%
X227208000Y-163576000D03*
X229108000Y-163576000D03*
X228158000Y-161701000D03*
%TD*%
D15*
%TO.C,Ce1*%
X133155000Y-101883600D03*
X130205000Y-101883600D03*
%TD*%
%TO.C,C48*%
X133285600Y-68584200D03*
X130335600Y-68584200D03*
%TD*%
D11*
%TO.C,R77*%
X148560300Y-89717000D03*
X145635300Y-89717000D03*
%TD*%
D26*
%TO.C,R117*%
X263144000Y-161122900D03*
X263144000Y-164047900D03*
%TD*%
D12*
%TO.C,D7*%
X255527000Y-71732400D03*
X252727000Y-71732400D03*
%TD*%
D33*
%TO.C,R130*%
X203555600Y-108970000D03*
X203555600Y-107950000D03*
%TD*%
D14*
%TO.C,R113*%
X251739400Y-137972800D03*
X251739400Y-135047800D03*
%TD*%
D43*
%TO.C,Q9*%
X227142000Y-129383000D03*
X229042000Y-129383000D03*
X228092000Y-127508000D03*
%TD*%
D24*
%TO.C,U6*%
X110519600Y-97220200D03*
X109249600Y-97220200D03*
X107979600Y-97220200D03*
X106709600Y-97220200D03*
X105439600Y-97220200D03*
X104169600Y-97220200D03*
X102899600Y-97220200D03*
X102899600Y-102170200D03*
X104169600Y-102170200D03*
X105439600Y-102170200D03*
X106709600Y-102170200D03*
X107979600Y-102170200D03*
X109249600Y-102170200D03*
X110519600Y-102170200D03*
%TD*%
D53*
%TO.C,R110*%
X255990500Y-141732000D03*
X261915500Y-141732000D03*
%TD*%
D16*
%TO.C,R9*%
X33970500Y-145837800D03*
X36895500Y-145837800D03*
%TD*%
D25*
%TO.C,D11*%
X245839900Y-105718400D03*
X245839900Y-109718400D03*
%TD*%
D11*
%TO.C,R37*%
X60771500Y-115312200D03*
X57846500Y-115312200D03*
%TD*%
%TO.C,R82*%
X153360900Y-101756600D03*
X150435900Y-101756600D03*
%TD*%
D25*
%TO.C,D23*%
X243408200Y-173387000D03*
X243408200Y-177387000D03*
%TD*%
D14*
%TO.C,R61*%
X209230000Y-108269500D03*
X209230000Y-105344500D03*
%TD*%
D21*
%TO.C,U10*%
X206244000Y-76849200D03*
X206244000Y-75579200D03*
X206244000Y-74309200D03*
X206244000Y-73039200D03*
X206244000Y-71769200D03*
X206244000Y-70499200D03*
X206244000Y-69229200D03*
X201294000Y-69229200D03*
X201294000Y-70499200D03*
X201294000Y-71769200D03*
X201294000Y-73039200D03*
X201294000Y-74309200D03*
X201294000Y-75579200D03*
X201294000Y-76849200D03*
%TD*%
D54*
%TO.C,R114*%
X251515100Y-150900000D03*
X251515100Y-156825000D03*
%TD*%
D11*
%TO.C,R58*%
X218642700Y-102235000D03*
X215717700Y-102235000D03*
%TD*%
D16*
%TO.C,R18*%
X233411300Y-76391300D03*
X236336300Y-76391300D03*
%TD*%
D55*
%TO.C,C7*%
X125156000Y-136652000D03*
X123256000Y-136652000D03*
%TD*%
D27*
%TO.C,C46*%
X134499400Y-80803400D03*
X134499400Y-77853400D03*
%TD*%
D13*
%TO.C,C12*%
X173228000Y-139060000D03*
X173228000Y-137160000D03*
%TD*%
D26*
%TO.C,R124*%
X160085383Y-155001800D03*
X160085383Y-157926800D03*
%TD*%
D17*
%TO.C,U27*%
X142161500Y-78420000D03*
X142161500Y-76520000D03*
X140286500Y-77470000D03*
%TD*%
D52*
%TO.C,R2*%
X123889000Y-150998000D03*
X125539000Y-150998000D03*
%TD*%
D11*
%TO.C,R107*%
X223204500Y-165252400D03*
X220279500Y-165252400D03*
%TD*%
D53*
%TO.C,R108*%
X250079600Y-110514000D03*
X256004600Y-110514000D03*
%TD*%
D43*
%TO.C,Q10*%
X226634000Y-145971500D03*
X228534000Y-145971500D03*
X227584000Y-144096500D03*
%TD*%
D15*
%TO.C,C69*%
X254459000Y-132867400D03*
X251509000Y-132867400D03*
%TD*%
D33*
%TO.C,R43*%
X67411600Y-130685000D03*
X67411600Y-129665000D03*
%TD*%
D23*
%TO.C,C30*%
X113974000Y-105269000D03*
X113974000Y-108219000D03*
%TD*%
D28*
%TO.C,C67*%
X256313600Y-118186200D03*
X259263600Y-118186200D03*
%TD*%
D16*
%TO.C,R71*%
X130166700Y-89767800D03*
X133091700Y-89767800D03*
%TD*%
D26*
%TO.C,R63*%
X108844700Y-65714900D03*
X108844700Y-68639900D03*
%TD*%
D28*
%TO.C,C68*%
X260123900Y-132892800D03*
X263073900Y-132892800D03*
%TD*%
D14*
%TO.C,R86*%
X158827600Y-73887900D03*
X158827600Y-70962900D03*
%TD*%
D56*
%TO.C,R125*%
X160085383Y-160504500D03*
X160085383Y-162329500D03*
%TD*%
D41*
%TO.C,C50*%
X136224000Y-74705600D03*
X135264000Y-74705600D03*
%TD*%
D15*
%TO.C,C71*%
X254387100Y-166014400D03*
X251437100Y-166014400D03*
%TD*%
D33*
%TO.C,R36*%
X64363600Y-110619000D03*
X64363600Y-109599000D03*
%TD*%
D13*
%TO.C,C13*%
X128524000Y-153858000D03*
X128524000Y-151958000D03*
%TD*%
D16*
%TO.C,R99*%
X191854200Y-102554500D03*
X194779200Y-102554500D03*
%TD*%
D28*
%TO.C,C61*%
X145648200Y-97006800D03*
X148598200Y-97006800D03*
%TD*%
M02*
