G04 #@! TF.GenerationSoftware,KiCad,Pcbnew,8.0.9*
G04 #@! TF.CreationDate,2025-05-25T13:16:14-05:00*
G04 #@! TF.ProjectId,karca_v2,6b617263-615f-4763-922e-6b696361645f,rev?*
G04 #@! TF.SameCoordinates,Original*
G04 #@! TF.FileFunction,Legend,Bot*
G04 #@! TF.FilePolarity,Positive*
%FSLAX46Y46*%
G04 Gerber Fmt 4.6, Leading zero omitted, Abs format (unit mm)*
G04 Created by KiCad (PCBNEW 8.0.9) date 2025-05-25 13:16:14*
%MOMM*%
%LPD*%
G01*
G04 APERTURE LIST*
G04 Aperture macros list*
%AMRoundRect*
0 Rectangle with rounded corners*
0 $1 Rounding radius*
0 $2 $3 $4 $5 $6 $7 $8 $9 X,Y pos of 4 corners*
0 Add a 4 corners polygon primitive as box body*
4,1,4,$2,$3,$4,$5,$6,$7,$8,$9,$2,$3,0*
0 Add four circle primitives for the rounded corners*
1,1,$1+$1,$2,$3*
1,1,$1+$1,$4,$5*
1,1,$1+$1,$6,$7*
1,1,$1+$1,$8,$9*
0 Add four rect primitives between the rounded corners*
20,1,$1+$1,$2,$3,$4,$5,0*
20,1,$1+$1,$4,$5,$6,$7,0*
20,1,$1+$1,$6,$7,$8,$9,0*
20,1,$1+$1,$8,$9,$2,$3,0*%
G04 Aperture macros list end*
%ADD10C,0.150000*%
%ADD11C,0.120000*%
%ADD12O,4.064800X2.134400*%
%ADD13O,2.134400X4.064800*%
%ADD14C,2.979000*%
%ADD15RoundRect,0.102000X1.387500X1.387500X-1.387500X1.387500X-1.387500X-1.387500X1.387500X-1.387500X0*%
%ADD16RoundRect,0.102000X1.387500X-1.387500X1.387500X1.387500X-1.387500X1.387500X-1.387500X-1.387500X0*%
%ADD17RoundRect,0.102000X-1.387500X1.387500X-1.387500X-1.387500X1.387500X-1.387500X1.387500X1.387500X0*%
%ADD18O,4.104000X2.154000*%
%ADD19O,2.154000X4.104000*%
%ADD20C,1.450000*%
%ADD21O,1.200000X1.900000*%
%ADD22C,2.184000*%
%ADD23R,1.350000X1.350000*%
%ADD24O,1.350000X1.350000*%
%ADD25C,3.200000*%
%ADD26R,1.700000X1.700000*%
%ADD27O,1.700000X1.700000*%
%ADD28R,3.200000X3.200000*%
%ADD29O,3.200000X3.200000*%
%ADD30C,1.440000*%
%ADD31R,1.905000X2.000000*%
%ADD32O,1.905000X2.000000*%
%ADD33R,1.050000X1.500000*%
%ADD34O,1.050000X1.500000*%
G04 APERTURE END LIST*
D10*
X55568933Y-142719819D02*
X55568933Y-143434104D01*
X55568933Y-143434104D02*
X55616552Y-143576961D01*
X55616552Y-143576961D02*
X55711790Y-143672200D01*
X55711790Y-143672200D02*
X55854647Y-143719819D01*
X55854647Y-143719819D02*
X55949885Y-143719819D01*
X55187980Y-142719819D02*
X54521314Y-142719819D01*
X54521314Y-142719819D02*
X54949885Y-143719819D01*
D11*
X57295600Y-184825000D02*
X57295600Y-144705000D01*
X55235600Y-144705000D02*
X57295600Y-144705000D01*
X53175600Y-184825000D02*
X57295600Y-184825000D01*
X55235600Y-146765000D02*
X55235600Y-144705000D01*
X53175600Y-146765000D02*
X55235600Y-146765000D01*
X53175600Y-144705000D02*
X54235600Y-144705000D01*
X53175600Y-145765000D02*
X53175600Y-144705000D01*
X53175600Y-184825000D02*
X53175600Y-146765000D01*
%LPC*%
D12*
X44520600Y-139142194D03*
X44520600Y-134142194D03*
X44520600Y-129142194D03*
X44520600Y-124142194D03*
X44520600Y-119142194D03*
X44520600Y-114142194D03*
X44520600Y-109142194D03*
X44520600Y-104142194D03*
X36320600Y-139142194D03*
X36320600Y-134142194D03*
X36320600Y-129142194D03*
X36320600Y-124142194D03*
X36320600Y-119142194D03*
X36320600Y-114142194D03*
X36320600Y-109142194D03*
X36320600Y-104142194D03*
X44293400Y-95144600D03*
X44293400Y-90144600D03*
X44293400Y-85144600D03*
X44293400Y-80144600D03*
X44293400Y-75144600D03*
X44293400Y-70144600D03*
X44293400Y-65144600D03*
X44293400Y-60144600D03*
X36093400Y-95144600D03*
X36093400Y-90144600D03*
X36093400Y-85144600D03*
X36093400Y-80144600D03*
X36093400Y-75144600D03*
X36093400Y-70144600D03*
X36093400Y-65144600D03*
X36093400Y-60144600D03*
D13*
X124220000Y-55571000D03*
X129220000Y-55571000D03*
X134220000Y-55571000D03*
X139220000Y-55571000D03*
X144220000Y-55571000D03*
X149220000Y-55571000D03*
X154220000Y-55571000D03*
X159220000Y-55571000D03*
X124220000Y-47371000D03*
X129220000Y-47371000D03*
X134220000Y-47371000D03*
X139220000Y-47371000D03*
X144220000Y-47371000D03*
X149220000Y-47371000D03*
X154220000Y-47371000D03*
X159220000Y-47371000D03*
D14*
X140207000Y-165100000D03*
D15*
X144907000Y-165100000D03*
D14*
X135507000Y-165100000D03*
X179244800Y-161549400D03*
D16*
X179244800Y-166249400D03*
D14*
X179244800Y-156849400D03*
X196645000Y-161387400D03*
D17*
X196645000Y-156687400D03*
D14*
X196645000Y-166087400D03*
D12*
X267263000Y-57340784D03*
X267263000Y-62340784D03*
X275463000Y-57340784D03*
X275463000Y-62340784D03*
X276124800Y-71822607D03*
X267924800Y-76822607D03*
X267924800Y-81822607D03*
X267924800Y-86822607D03*
X267924800Y-71822607D03*
X276124800Y-76822607D03*
X276124800Y-81822607D03*
X276124800Y-86822607D03*
D18*
X267948800Y-122298400D03*
X267948800Y-127298400D03*
X267948800Y-132298400D03*
X267948800Y-137298400D03*
X267948800Y-142298400D03*
X267948800Y-147298400D03*
X267948800Y-152298400D03*
X267948800Y-157298400D03*
X267948800Y-162298400D03*
X267948800Y-167298400D03*
X276148800Y-122298400D03*
X276148800Y-127298400D03*
X276148800Y-132298400D03*
X276148800Y-137298400D03*
X276148800Y-142298400D03*
X276148800Y-147298400D03*
X276148800Y-152298400D03*
X276148800Y-157298400D03*
X276148800Y-162298400D03*
X276148800Y-167298400D03*
D19*
X183163200Y-55113800D03*
X188163200Y-55113800D03*
X193163200Y-55113800D03*
X198163200Y-55113800D03*
X203163200Y-55113800D03*
X208163200Y-55113800D03*
X213163200Y-55113800D03*
X218163200Y-55113800D03*
X223163200Y-55113800D03*
X228163200Y-55113800D03*
X183163200Y-46913800D03*
X188163200Y-46913800D03*
X193163200Y-46913800D03*
X198163200Y-46913800D03*
X203163200Y-46913800D03*
X208163200Y-46913800D03*
X213163200Y-46913800D03*
X218163200Y-46913800D03*
X223163200Y-46913800D03*
X228163200Y-46913800D03*
D20*
X132348600Y-181163500D03*
X137348600Y-181163500D03*
D21*
X131348600Y-183863500D03*
X138348600Y-183863500D03*
D13*
X185318000Y-172703400D03*
X180318000Y-172703400D03*
X185318000Y-180903400D03*
X180318000Y-180903400D03*
X200427200Y-172703400D03*
X195427200Y-172703400D03*
X200427200Y-180903400D03*
X195427200Y-180903400D03*
D22*
X169084800Y-184654800D03*
X169084800Y-162154800D03*
D13*
X251371384Y-54883800D03*
X256371384Y-54883800D03*
X251371384Y-46683800D03*
X256371384Y-46683800D03*
D23*
X54235600Y-145765000D03*
D24*
X56235600Y-145765000D03*
X54235600Y-147765000D03*
X56235600Y-147765000D03*
X54235600Y-149765000D03*
X56235600Y-149765000D03*
X54235600Y-151765000D03*
X56235600Y-151765000D03*
X54235600Y-153765000D03*
X56235600Y-153765000D03*
X54235600Y-155765000D03*
X56235600Y-155765000D03*
X54235600Y-157765000D03*
X56235600Y-157765000D03*
X54235600Y-159765000D03*
X56235600Y-159765000D03*
X54235600Y-161765000D03*
X56235600Y-161765000D03*
X54235600Y-163765000D03*
X56235600Y-163765000D03*
X54235600Y-165765000D03*
X56235600Y-165765000D03*
X54235600Y-167765000D03*
X56235600Y-167765000D03*
X54235600Y-169765000D03*
X56235600Y-169765000D03*
X54235600Y-171765000D03*
X56235600Y-171765000D03*
X54235600Y-173765000D03*
X56235600Y-173765000D03*
X54235600Y-175765000D03*
X56235600Y-175765000D03*
X54235600Y-177765000D03*
X56235600Y-177765000D03*
X54235600Y-179765000D03*
X56235600Y-179765000D03*
X54235600Y-181765000D03*
X56235600Y-181765000D03*
X54235600Y-183765000D03*
X56235600Y-183765000D03*
D25*
X275886400Y-181385200D03*
X275886400Y-46385200D03*
D26*
X117602000Y-184531000D03*
D27*
X115062000Y-184531000D03*
X112522000Y-184531000D03*
D28*
X166544800Y-151332200D03*
D29*
X181784800Y-151332200D03*
D26*
X72517000Y-60452000D03*
D27*
X75057000Y-60452000D03*
X77597000Y-60452000D03*
D30*
X94314400Y-96988600D03*
X94314400Y-99528600D03*
X94314400Y-102068600D03*
D31*
X240665000Y-79177000D03*
D32*
X243205000Y-79177000D03*
X245745000Y-79177000D03*
D31*
X228854000Y-111562000D03*
D32*
X231394000Y-111562000D03*
X233934000Y-111562000D03*
D26*
X75285600Y-128524000D03*
D27*
X77825600Y-128524000D03*
X80365600Y-128524000D03*
D31*
X227330000Y-162743000D03*
D32*
X229870000Y-162743000D03*
X232410000Y-162743000D03*
D26*
X72549000Y-108712000D03*
D27*
X75089000Y-108712000D03*
X77629000Y-108712000D03*
D31*
X227203000Y-129088000D03*
D32*
X229743000Y-129088000D03*
X232283000Y-129088000D03*
D33*
X33959800Y-155223800D03*
D34*
X35229800Y-155223800D03*
X36499800Y-155223800D03*
D26*
X72676000Y-82804000D03*
D27*
X75216000Y-82804000D03*
X77756000Y-82804000D03*
D31*
X227457000Y-177983000D03*
D32*
X229997000Y-177983000D03*
X232537000Y-177983000D03*
D25*
X35886400Y-181385200D03*
D31*
X226949000Y-145471000D03*
D32*
X229489000Y-145471000D03*
X232029000Y-145471000D03*
D25*
X35886400Y-46385200D03*
%LPD*%
M02*
